/* XPM */
static char *result[] = {
/* columns rows colors chars-per-pixel */
"61 61 130 2 ",
"   c #261C1C",
".  c #291E1D",
"X  c #2C201E",
"o  c #272324",
"O  c #2E2321",
"+  c #2C292B",
"@  c #322524",
"#  c #362926",
"$  c #352A29",
"%  c #3B2D2B",
"&  c #3D312C",
"*  c #2E2D30",
"=  c #322E31",
"-  c #3C3432",
";  c #393538",
":  c #3A383A",
">  c #41322F",
",  c #433530",
"<  c #463934",
"1  c #493B35",
"2  c #453F3D",
"3  c #4E3E39",
"4  c #4C423C",
"5  c #52423B",
"6  c #403F43",
"7  c #4B4644",
"8  c #4D4847",
"9  c #44464B",
"0  c #4D4D4C",
"q  c #554741",
"w  c #554B44",
"e  c #5D4C43",
"r  c #544E4D",
"t  c #5C4F48",
"y  c #5B5044",
"u  c #54514D",
"i  c #5B534B",
"p  c #474C52",
"a  c #4A4E52",
"s  c #4F575E",
"d  c #525455",
"f  c #5B5553",
"g  c #565957",
"h  c #5E5957",
"j  c #53565B",
"k  c #56595D",
"l  c #5B5A5B",
"z  c #614E44",
"x  c #645247",
"c  c #645349",
"v  c #6A564C",
"b  c #6F5A4F",
"n  c #645D54",
"m  c #6B5E55",
"M  c #635E5C",
"N  c #715C51",
"B  c #6C6255",
"V  c #64615E",
"C  c #6A645A",
"Z  c #746455",
"A  c #796356",
"S  c #756957",
"D  c #726359",
"F  c #7D665A",
"G  c #75685A",
"H  c #7D6A5A",
"J  c #545D64",
"K  c #585F66",
"L  c #5B6166",
"P  c #546068",
"I  c #5C646B",
"U  c #5E6A72",
"Y  c #626466",
"T  c #6A6462",
"R  c #666A6B",
"E  c #766E64",
"W  c #7C6B62",
"Q  c #71706C",
"!  c #646C72",
"~  c #656F78",
"^  c #677077",
"/  c #6A7173",
"(  c #66727C",
")  c #707372",
"_  c #826B5D",
"`  c #82735E",
"'  c #866E61",
"]  c #896F62",
"[  c #867560",
"{  c #8B7264",
"}  c #8D7C65",
"|  c #907667",
" . c #907F67",
".. c #927E69",
"X. c #677681",
"o. c #697782",
"O. c #6C7984",
"+. c #6D7D8A",
"@. c #717B83",
"#. c #707F8B",
"$. c #72818D",
"%. c #7B858A",
"&. c #758592",
"*. c #788590",
"=. c #7A8A96",
"-. c #778B99",
";. c #7B8D9A",
":. c #7E92A1",
">. c #80909C",
",. c #8194A2",
"<. c #8398A7",
"1. c #859BAB",
"2. c #899EAD",
"3. c #889FB0",
"4. c #8CA2B3",
"5. c #8EA6B8",
"6. c #90A5B5",
"7. c #90A7B9",
"8. c #93AABC",
"9. c #96AEC1",
"0. c #98AFC1",
"q. c #97B1C4",
"w. c #9AB3C6",
"e. c #9CB7CC",
"r. c #9EB9CC",
"t. c #A0B7C9",
"y. c #A2BBCF",
"u. c #A5BED1",
"i. c #A7C0D3",
"p. c #A9C0D2",
/* pixels */
"e.e.e.e.e.e.e.e.e.e.e.e.e.e.e.e.e.e.e.e.e.e.e.e.e.e.e.e.e.e.e.e.e.e.e.e.e.r.e.e.e.e.e.e.e.e.e.e.e.e.e.e.e.e.e.e.e.e.e.e.e.",
"e.e.e.e.e.e.e.e.e.e.e.e.e.e.e.e.e.e.e.e.e.e.e.e.e.e.e.e.e.e.e.e.e.e.r.e.e.e.e.e.e.e.e.e.e.e.e.e.e.e.e.e.e.e.e.e.e.e.e.e.e.",
"e.e.e.e.e.e.e.e.e.e.e.e.e.e.e.e.e.e.e.e.e.e.e.e.e.e.e.e.e.e.e.e.e.e.e.e.r.e.r.r.e.e.e.e.e.e.e.e.e.e.e.e.e.e.e.e.e.e.e.e.e.",
"r.r.r.e.r.e.r.r.r.e.r.r.r.r.r.e.r.e.r.r.r.e.r.e.e.r.e.r.r.r.e.r.r.e.r.e.e.e.e.e.r.e.r.r.r.e.r.r.r.e.r.e.e.r.e.r.r.e.r.r.r.",
"e.r.e.r.e.r.e.r.r.r.e.e.e.r.r.r.e.r.r.e.r.e.e.r.r.e.e.r.r.r.e.r.e.e.r.r.e.r.r.r.e.r.r.e.r.r.r.e.r.e.r.e.r.r.e.r.r.r.e.e.r.",
"r.e.r.e.r.e.r.e.e.r.r.r.r.r.e.r.r.e.e.r.e.r.r.e.r.r.r.r.e.r.e.r.e.r.e.r.r.r.e.r.e.r.r.e.r.e.r.e.e.r.e.r.r.e.r.e.e.r.r.r.r.",
"e.r.r.r.e.r.e.r.e.r.r.r.r.e.r.e.e.r.e.r.r.e.r.r.e.r.r.e.r.e.r.r.e.e.r.e.e.r.r.r.r.e.r.r.r.r.r.r.r.r.r.e.r.e.e.r.r.e.r.r.r.",
"r.r.r.r.r.r.r.r.r.r.e.e.r.r.e.e.r.r.r.r.r.r.r.r.r.e.r.e.r.r.r.e.r.e.e.r.r.r.r.r.r.e.e.r.r.e.e.r.r.r.r.r.r.r.r.r.r.r.r.r.r.",
"r.r.r.r.r.r.r.r.r.r.r.r.r.r.r.y.r.r.r.r.r.r.r.r.r.r.r.r.r.r.r.r.r.r.r.r.r.r.r.r.r.r.r.r.r.r.r.r.r.r.r.r.r.r.r.r.r.r.r.r.r.",
"r.r.r.r.r.r.r.r.r.r.r.r.r.r.r.r.r.r.r.r.r.e.8.2.:.:.5.q.r.r.r.r.r.r.r.r.r.r.r.r.r.r.r.r.r.r.r.r.r.r.r.r.r.r.r.r.r.r.r.r.r.",
"r.r.r.r.r.r.r.r.r.r.r.r.r.r.r.e.r.r.e.w.2.+.L f g u d L X.1.w.y.r.r.r.r.r.r.r.y.r.y.r.r.r.r.r.y.r.r.r.r.r.r.r.y.r.r.r.r.r.",
"r.r.r.r.r.r.r.r.r.y.r.r.r.r.r.y.r.r.4.! M W ' [ ` ` W W C 0 P 1.r.r.r.r.y.r.r.r.r.r.r.r.r.r.r.r.r.r.r.r.y.r.r.r.r.r.r.r.r.",
"r.r.r.r.r.y.r.y.y.r.r.r.y.r.y.e.r.;.Y D H S v y w w y Z ` H B g $.8.y.y.r.r.r.r.r.r.r.r.r.r.r.r.r.r.y.r.r.r.r.r.y.r.r.r.r.",
"r.y.y.r.r.r.r.r.r.r.r.y.y.r.e.y.:.l D H c l O.=.-.$.^ g y Z } S g ( 8.y.r.r.y.y.r.y.r.y.r.y.y.r.r.r.r.r.r.y.y.r.y.r.y.r.y.",
"r.r.r.r.y.r.y.y.y.r.y.r.r.y.r.q.L m [ w I <.q.w.e.w.8.5.&.d y } ` n ( e.y.r.r.r.r.r.r.r.r.r.r.r.r.r.r.r.r.r.r.r.r.r.r.r.r.",
"r.y.y.r.r.r.r.r.r.r.r.r.r.r.u.+.n _ x k :.r.y.r.y.y.y.y.w.2.U i ` E V -.r.y.r.y.r.y.r.y.r.y.r.y.r.y.y.r.r.y.y.r.r.y.y.r.r.",
"y.y.e.y.e.y.y.y.e.y.y.y.e.y.e.J Z _ 4 +.e.t.7.1.5.w.e.y.y.e.8.~ B } S I 3.i.y.y.r.y.r.y.r.y.r.y.y.r.r.r.y.r.y.r.e.y.y.y.t.",
"e.e.u.e.y.y.e.e.y.y.e.e.y.y.0.f F F 7 :.7.O.k r p o.8.y.e.u.u.1.L S } C $.r.r.y.y.r.y.r.y.r.y.r.r.r.u.r.r.y.r.y.y.y.e.e.y.",
"y.y.e.u.y.e.e.u.y.y.y.y.y.y.9.K H _ 4 I K r v v e 8 &.y.y.y.r.e.&.C  .H R 4.y.r.r.y.r.y.r.y.r.y.u.e.r.u.y.r.r.y.y.r.y.y.y.",
"u.e.y.y.e.u.y.e.y.e.e.y.y.e.w.M F [ v w q b _ ] _ q ~ 0.u.e.y.y.5./ S } C $.i.r.y.r.y.r.y.r.y.r.u.r.r.u.r.y.y.r.r.y.y.e.y.",
"e.y.y.y.e.u.y.y.y.t.y.y.r.y.r.K F { ] A _ _ _ { ] e I 5.r.u.e.u.r.&.n  .S ! e.y.y.r.r.y.r.y.r.y.r.r.u.e.t.y.y.y.y.y.y.e.y.",
"y.y.e.y.u.e.e.u.y.y.y.r.r.u.u.X.m { | | _ A ] { _ 5 L 5.u.r.u.e.y.4.) ` [ Q 2.y.y.y.y.y.y.y.y.y.u.r.r.u.y.y.r.y.y.y.y.y.t.",
"e.y.y.y.e.u.y.y.y.y.y.y.u.r.u.3.g m _ _ A A ] | v - ( w.y.u.e.u.y.w.%.G ..E &.u.y.y.y.y.y.r.y.y.r.u.u.r.r.y.y.r.y.r.y.y.y.",
"y.y.y.y.u.r.y.r.y.y.r.y.r.u.r.y.#.8 z N b N N N < p <.u.r.r.y.r.y.t.>.B ..G ~ y.y.y.r.y.y.y.y.y.y.r.y.y.y.y.y.y.y.y.y.y.y.",
"y.y.e.u.y.e.u.y.y.r.u.r.y.y.r.u.9.#.J 7 3 3 q 7 J ,.w.u.r.r.r.u.y.y.;.m | D R e.u.r.u.r.u.e.e.u.y.r.e.u.e.u.r.u.y.y.y.y.y.",
"y.y.u.e.y.y.u.y.y.y.y.y.y.y.y.y.u.t.2.+.~ ! o.-.5.t.y.u.u.u.u.r.y.u.>.M { A Y 7.u.u.r.r.u.y.u.e.y.u.u.r.u.r.u.r.y.y.y.y.y.",
"y.u.y.u.u.r.e.u.r.y.y.y.y.y.y.y.y.y.u.e.9.8.w.u.u.y.y.y.u.r.r.u.y.y.,.M _ F T 1.r.u.u.u.e.u.u.u.u.r.u.u.u.r.r.u.y.y.y.y.y.",
"y.y.y.y.u.u.e.u.u.y.y.y.y.y.u.y.y.u.u.r.u.u.u.r.y.y.y.y.r.u.r.u.y.u.,.M _ _ T ,.u.r.r.u.e.u.r.u.r.u.r.u.r.u.u.r.y.y.y.y.y.",
"y.y.y.y.e.r.u.r.y.u.y.y.y.y.y.y.y.y.u.r.u.r.u.u.u.r.r.u.u.u.r.u.y.u.:.h F ' V :.u.y.y.y.e.u.u.e.r.u.u.r.u.u.r.u.y.y.y.y.y.",
"u.y.u.y.u.u.u.u.y.y.y.u.u.y.u.y.u.y.y.u.y.y.y.y.r.u.u.u.u.r.r.u.u.u.;.h _ N M ,.u.u.y.y.y.u.y.u.u.r.u.u.u.r.r.u.u.y.y.u.u.",
"y.y.u.y.u.y.u.e.y.u.y.y.y.y.y.u.y.y.u.r.u.y.u.r.u.u.u.r.u.r.u.u.u.u.;.r F N M 1.u.y.u.y.u.y.u.r.u.u.u.r.u.r.u.u.u.y.y.y.y.",
"u.y.y.y.y.y.u.u.y.y.u.y.u.y.y.u.y.u.y.u.y.y.u.u.u.r.u.r.u.u.u.r.u.u.#.t ' b K 3.u.y.u.y.u.e.u.u.u.r.u.r.u.u.u.r.y.y.u.u.y.",
"y.u.y.y.u.y.y.y.y.y.y.u.y.y.y.u.y.u.y.y.y.u.y.y.u.u.y.y.y.y.u.u.y.t.@.z ' c k 7.u.y.y.y.u.u.y.y.u.u.u.t.u.y.u.y.y.u.y.y.y.",
"y.y.y.y.y.y.y.u.y.u.y.y.y.u.y.y.y.u.y.u.y.y.u.y.y.y.y.u.u.y.y.y.u.8.! x F z k 0.u.y.u.y.y.y.y.u.t.u.y.u.u.y.y.y.u.t.y.u.y.",
"y.y.u.y.u.y.y.u.y.y.y.y.u.y.u.u.u.y.y.u.u.u.y.y.u.u.u.u.u.y.y.u.u.,.f v F e J u.u.y.y.y.u.u.u.y.u.u.t.u.u.y.u.u.u.u.u.u.u.",
"u.u.u.u.y.u.u.u.u.u.u.u.u.u.y.u.y.u.u.y.u.y.u.u.y.y.u.y.u.y.u.u.y.o.7 N N t U u.y.u.u.u.y.y.u.u.u.u.u.u.y.u.u.y.y.y.u.y.y.",
"u.y.u.u.y.u.u.y.u.u.y.u.y.u.u.y.u.y.u.u.p.y.y.y.u.y.y.u.u.y.y.u.8.I 3 N v f #.u.y.u.u.y.u.u.y.u.u.t.u.u.u.u.t.u.u.y.y.u.u.",
"u.u.u.y.u.u.u.y.u.y.u.u.u.y.y.u.u.y.y.u.y.y.p.p.u.u.u.y.y.u.u.u.=.r z v z h <.u.u.u.y.u.y.u.u.y.u.u.u.u.u.u.u.u.u.u.u.y.y.",
"u.u.u.u.y.y.u.u.y.u.u.y.u.y.u.u.y.u.u.y.y.p.u.y.y.u.y.u.u.y.u.0.I 1 z c 3 J 0.u.y.u.y.u.y.u.u.y.u.t.u.u.t.u.u.u.y.u.y.u.u.",
"y.u.y.u.u.u.u.y.y.u.y.u.u.u.u.u.u.u.u.u.u.y.y.y.u.u.u.u.u.u.u.>.9 1 e e 1 K u.u.y.u.u.u.u.u.u.u.u.u.u.u.u.u.u.u.u.u.u.u.u.",
"u.u.u.u.u.u.u.u.u.u.u.u.u.y.u.u.u.u.u.u.u.u.y.p.p.y.i.y.y.i.y.( - 5 5 5 3 o.p.u.u.u.u.u.u.u.u.u.u.u.u.u.u.u.u.u.u.u.u.u.u.",
"u.u.u.u.u.u.u.u.u.u.u.u.u.u.u.u.u.u.u.u.y.u.p.y.y.p.y.p.i.i.2.a > 3 5 < 0 2.p.u.u.u.u.u.u.u.u.u.u.u.u.u.u.u.u.u.u.u.u.u.u.",
"u.u.u.u.u.u.u.u.u.u.u.u.u.u.u.u.u.u.u.u.p.u.u.p.p.y.i.y.y.p.( $ , < 1 % K y.u.u.u.u.u.u.u.u.y.u.u.u.u.u.u.u.u.u.u.u.u.u.u.",
"u.u.u.u.u.u.u.u.u.u.u.u.u.u.u.u.u.u.u.u.u.u.u.u.i.p.p.y.p.8.s @ > > > - O.u.u.u.u.u.u.u.u.u.u.u.u.u.u.u.u.u.u.u.u.u.u.u.u.",
"u.u.u.u.u.u.u.u.u.u.u.u.u.u.u.u.u.u.u.u.u.u.p.y.y.u.u.u.p.&.: # % % # 6 ,.p.u.u.u.u.u.u.u.u.u.u.u.u.u.u.u.u.u.u.u.u.u.u.u.",
"u.u.u.u.u.u.u.u.u.u.u.u.u.u.u.u.u.u.u.u.u.u.u.p.p.u.u.p.r.K   $ # % @ j 0.u.u.u.u.u.u.u.u.u.u.u.u.u.u.u.u.u.u.u.u.u.u.u.u.",
"u.u.p.u.u.p.p.u.u.p.u.p.u.u.u.u.p.u.u.p.p.u.y.p.p.y.u.p.2.9   @ @ @ ; +.u.u.p.u.u.p.u.p.u.u.u.u.u.p.p.u.p.u.u.u.u.u.p.u.u.",
"p.p.u.p.u.p.u.p.u.u.p.u.p.u.u.u.u.u.p.u.p.u.u.p.p.p.p.p.-.: X O @   p 7.p.p.u.p.u.u.p.u.p.u.u.u.p.u.u.p.u.p.p.u.p.p.u.p.p.",
"u.p.p.u.p.u.u.p.p.p.p.u.p.u.u.p.u.p.p.u.p.u.u.p.p.p.p.p.>.% X O . + ( u.u.u.u.p.p.p.p.u.p.u.u.p.u.p.p.u.u.p.u.p.p.p.p.u.u.",
"p.u.u.u.u.p.p.u.p.p.p.p.u.p.u.p.p.u.u.u.u.p.p.u.p.p.p.p.@.#     o J 0.p.u.u.u.u.p.p.p.p.u.p.p.u.u.u.u.p.p.u.u.u.p.p.p.p.p.",
"u.u.p.u.p.u.u.p.p.p.p.p.p.u.u.u.u.u.u.p.p.u.u.u.p.p.p.p.>.8 O $ J 4.u.u.p.u.p.u.p.p.p.p.u.u.p.u.p.u.u.u.p.u.p.u.p.p.p.p.u.",
"p.p.p.p.p.u.p.p.p.p.p.p.p.p.p.p.p.p.p.p.p.p.p.p.p.p.p.p.u.6.;.1.0.u.u.p.p.p.p.p.p.p.p.p.p.p.p.p.p.p.p.p.p.p.p.p.p.p.p.p.p.",
"u.p.p.p.p.u.p.p.p.p.p.p.p.p.p.p.u.p.p.p.p.p.p.p.p.p.p.p.p.p.p.p.p.u.p.p.p.p.p.p.p.p.p.p.p.p.p.p.p.u.p.p.p.p.p.p.p.p.p.p.p.",
"p.p.p.u.p.p.p.p.p.p.p.p.p.p.p.p.p.p.p.u.p.u.p.p.p.p.p.p.p.p.p.p.p.p.p.p.p.u.u.p.p.p.p.p.p.p.p.p.p.p.p.p.u.p.u.p.p.p.p.p.p.",
"p.p.p.p.u.p.u.p.p.p.p.p.p.p.p.p.p.p.p.p.u.p.u.p.p.p.p.p.p.p.p.p.p.p.p.u.p.u.p.p.p.p.p.p.p.p.p.p.p.p.p.u.p.u.p.p.p.p.p.p.p.",
"p.p.p.p.p.p.p.p.p.p.p.p.p.p.p.p.p.p.p.p.p.p.p.p.p.p.p.p.p.p.p.p.u.p.p.p.p.p.p.p.p.p.p.p.p.p.p.p.u.p.p.p.p.p.p.p.p.p.p.p.p.",
"u.p.p.p.p.p.p.p.p.p.p.p.p.p.p.p.u.p.p.p.p.p.p.p.p.p.p.p.p.p.p.p.p.p.p.p.p.p.p.p.p.p.p.p.p.p.p.p.p.p.p.p.p.p.p.p.p.p.p.p.p.",
"p.p.p.p.p.p.p.p.p.p.p.p.p.p.p.p.p.p.p.p.p.p.p.p.p.p.p.p.p.p.p.p.p.p.p.p.p.p.p.p.p.p.p.p.p.p.p.p.p.p.p.p.p.p.p.p.p.p.p.p.p.",
"p.p.p.p.p.p.p.p.p.p.p.p.p.p.p.p.p.p.p.p.p.p.p.p.p.p.p.p.p.p.p.p.p.p.p.p.p.p.p.p.p.p.p.p.p.p.p.p.p.p.p.p.p.p.p.p.p.p.p.p.p.",
"p.p.p.p.p.p.p.p.p.p.p.p.p.p.p.p.p.p.p.p.p.p.p.p.p.p.p.p.p.p.p.p.p.p.p.p.p.p.p.p.p.p.p.p.p.p.p.p.p.p.p.p.p.p.p.p.p.p.p.p.p.",
"p.p.p.p.p.p.p.p.p.p.p.p.p.p.p.p.p.p.p.p.p.p.p.p.p.p.p.p.p.p.p.p.p.p.p.p.p.p.p.p.p.p.p.p.p.p.p.p.p.p.p.p.p.p.p.p.p.p.p.p.p."
};
