/* XPM */
static char *_e411feb3e454d1c9e7973d84e5a425eOENw96JPpNShOAf5[] = {
/* columns rows colors chars-per-pixel */
"61 61 166 2 ",
"   c None",
".  c #290916",
"X  c #2E0B1A",
"o  c #310A17",
"O  c #350D1C",
"+  c #390E1F",
"@  c #3B0B17",
"#  c #2F0A22",
"$  c #27072D",
"%  c #29072F",
"&  c #2B092D",
"*  c #330C25",
"=  c #3A0F21",
"-  c #330B2B",
";  c #3C0D2B",
":  c #24192B",
">  c #3C1021",
",  c #34172A",
"<  c #3E1D2B",
"1  c #2B0731",
"2  c #2E0833",
"3  c #310935",
"4  c #3D0B37",
"5  c #340939",
"6  c #39093D",
"7  c #341630",
"8  c #3A1D31",
"9  c #3F2623",
"0  c #3E262F",
"q  c #2F273F",
"w  c #3D2331",
"e  c #3C2C3E",
"r  c #7A151E",
"t  c #502F1D",
"y  c #400F2C",
"u  c #40182B",
"i  c #5C1221",
"p  c #450F3C",
"a  c #451A3F",
"s  c #411534",
"d  c #5B202A",
"f  c #422335",
"g  c #482934",
"h  c #422038",
"j  c #4E2234",
"k  c #562330",
"l  c #423437",
"z  c #45313D",
"x  c #4C343B",
"c  c #4B3A3E",
"v  c #5C3937",
"b  c #50323A",
"n  c #56393D",
"m  c #5B3D3A",
"M  c #733E27",
"N  c #643C36",
"B  c #5A453B",
"V  c #7D4120",
"C  c #7C452F",
"Z  c #6A4037",
"A  c #69463D",
"S  c #744433",
"D  c #7C4631",
"F  c #754835",
"G  c #7A4D34",
"H  c #76473A",
"J  c #7F4E3C",
"K  c #775135",
"L  c #7F5133",
"P  c #775C37",
"I  c #72543F",
"U  c #7E523C",
"Y  c #3D0B41",
"T  c #2E2742",
"R  c #2E2946",
"E  c #302740",
"W  c #322942",
"Q  c #392C42",
"!  c #352E49",
"~  c #37304C",
"^  c #3A324D",
"/  c #373251",
"(  c #3B3652",
")  c #3F3A56",
"_  c #3F3A58",
"`  c #420A45",
"'  c #460B49",
"]  c #4C0C4E",
"[  c #4A1149",
"{  c #4E0C50",
"}  c #413041",
"|  c #493440",
" . c #48354E",
".. c #473A4C",
"X. c #4B3A4B",
"o. c #44324B",
"O. c #503B41",
"+. c #413A55",
"@. c #4B3E52",
"#. c #433C5C",
"$. c #573C53",
"%. c #5C464D",
"&. c #4F405C",
"*. c #514550",
"=. c #5F445D",
"-. c #644542",
";. c #7C5042",
":. c #7F5F42",
">. c #765344",
",. c #4E4165",
"<. c #54446C",
"1. c #5C4663",
"2. c #5A4771",
"3. c #604361",
"4. c #764262",
"5. c #794B62",
"6. c #8A171E",
"7. c #81262F",
"8. c #B22227",
"9. c #854E22",
"0. c #84492E",
"q. c #8C4B2C",
"w. c #8A502F",
"e. c #98552B",
"r. c #83543B",
"t. c #835E3E",
"y. c #9F5B30",
"u. c #915234",
"i. c #A45527",
"p. c #AA5726",
"a. c #AB5926",
"s. c #A55928",
"d. c #AF5A28",
"f. c #B35E25",
"g. c #9D632F",
"h. c #92633B",
"j. c #A1652E",
"k. c #A76F2F",
"l. c #AE692B",
"z. c #B16227",
"x. c #B46728",
"c. c #BB6B2A",
"v. c #AD752D",
"b. c #BC732B",
"n. c #BC7D2B",
"m. c #AE6736",
"M. c #B57638",
"N. c #C16322",
"B. c #C27125",
"V. c #CC7625",
"C. c #C47826",
"Z. c #CD7A26",
"A. c #C47629",
"S. c #C37F29",
"D. c #CD7929",
"F. c #D07A26",
"G. c #825940",
"H. c #88546B",
"J. c #845673",
"K. c #AD8334",
"L. c #C68129",
"P. c #CB8328",
"I. c #CE8D28",
"U. c #D49627",
"Y. c #9A6284",
"T. c #9E658A",
/* pixels */
"                                                                                                                          ",
"                                                                                                                          ",
"                                                                                                                          ",
"                                                  % % %                                                                   ",
"                                            > 8 1 % % % 1 1 1                                                             ",
"                                          , * w f w w 3 5 ' ' 6                                                           ",
"                                      1 1 $ o * 7 w 0 f [ { { 6 %                                                         ",
"                                  5 3 1 % $ o O & 6 a w f [ ] ] 2 %                                                       ",
"                                  { ' Y 1 $ o + ; ] ] w 0 a { ] 3 %                                                       ",
"                                { { { ` % 1 ; + + ; p < < s ] ' 1 %                                                       ",
"                        3       { { ' 3 1 ` ` ; + > > + = > ; ; % % %                                                     ",
"                        2       { ` 2 % 6 ] { ` * o X . . X O > - % %                                                     ",
"                      % %       ` 5 $ $ Y { { { [ 4 X X X @ . X = & %                                                     ",
"                      %       Y 6 $ % 1 ` { ] { { { [ f d 6.o X O - %                                                     ",
"                              { ` 1 3 2 ' { { ] { { ] a j M 8.r X & %                                                     ",
"                        2     { ` 3 ' 5 2 ' { ] ] 6 6 5 8 f k i * 3 %                                                     ",
"                      ` 1     ] 2 Y { 3 $ 3 ` Y 1 1 1 2 1 & 1 $ # -                                                       ",
"                              ] 2 ` { ` 1 1 1 % 1 $ 2 Y 1 % % % % X O                                                     ",
"                              ` 3 ' { ' 5 $ % 1 $ 1 ` ' 5 1 % % 1   X =                                                   ",
"                              $ 5 { ` 3 1 1 1 2 Y ' { { ' 1 % 1       X O                                                 ",
"                              % 5 ` 1 % 2 ` ` ] ] { [ ' 2 % %           X +                                               ",
"                              % 1 1 % % 2 5 ` { { { ] 2 % %               o O                                             ",
"                            5 1 1     5 5 $         5 2                     X +                                           ",
"                            % %       '             %             2.,.#._     X +                                         ",
"                            %                       %             2.#.@.+.)     o +                                       ",
"                          %                                     <.,.J d.M W       u 4.                                    ",
"                                                                ,.X.c.N.V W         Y.Y.                                  ",
"                                                          U.  2.#.X.m.F.9.W       &.J.5.j                                 ",
"                                                          M.c.;.! =.x t 9 !       ) =.$.X O                               ",
"                                                        <.,.r.B.J o.q : :         ) ^     X O                             ",
"                                                <.<.<.#.#.! | c.D.A T W l         ) ~       X O                           ",
"                                              ) ) ) ( / ! W E D V.g.../ I U.I.K.+.~ !         O O                         ",
"                                            _ _ ( ! W T   W T K G n.b.G.h.P.G.*.~ q             O O                       ",
"                                            _ ( W T         T r.x B z.b.C.k.~ ! W W               X O                     ",
"                                            1...W         W ~ U O.! z q.0.z W E q                   o O                   ",
"                                            T.5.Q         ! ) t.c ! W                                 X O                 ",
"                                            Y.H.          ( %.F T E                                     X O               ",
"                                                          ~ %.v.c P B                                     X               ",
"                                                          q r.P.K S.j.V.h.                                                ",
"                                                        _ %.l.F.b.V.A.>.X.( ( ) #.                                        ",
"                                                        ) ^ z L F D y.J A e T W ^                                         ",
"                                                      _ ) ~ x q.o.! X.n 0.S m z C v                                       ",
"                                                    -.( ~ W q.F R T E T T x f.C N e                                       ",
"                                                  e.x.Z m S c.u.-.z T e v x N e ~ )                                       ",
"                                                ( } Z i.s.e.p.p.p.q.D 0.q.e W ! ( )                                       ",
"                                              ) ) ( ~ e e e e e e e e e W ! ! ) #.)                                       ",
"                                              ) _ ) ( ^ W ! ~ ! W Q Q ! W ! ! ( ( !                                       ",
"                                            _ ) ) ) _ _ +.~ W ! / ( ( ! ! ^ ( ! W W                                       ",
"                                            ) _ ) ) #.) ) ! ^ ~ ^ ) ~ Q / ^ Q W E W                                       ",
"                                          ) +.) _ _ ( ) ~ ! ! ( ) / ! ! W W W E W                                         ",
"                                        ) ) _ ( ( ^ ~ ~ ! ^ ) ( ! W q W W E E                                             ",
"                                        _ ) ) ( ^ ( ) +.( ^ ~ W q E W E E W                                               ",
"                                      ) ) ) ) ) ) ) ( ^ ! W q W E W E W                                                   ",
"                                      #.) ) ( ( ! ! W W q W E W                                                           ",
"                                    ( ^ ! W W W W q E W                                                                   ",
"                                                                                                                          ",
"                                                                                                                          ",
"                                                                                                                          ",
"                                                                                                                          ",
"                                                                                                                          ",
"                                                                                                                          "
};
