/* XPM */
static char *result[] = {
/* columns rows colors chars-per-pixel */
"61 61 190 2 ",
"   c #290916",
".  c #2D0C1B",
"X  c #320C1C",
"o  c #390E1F",
"O  c #360B17",
"+  c #2F0A22",
"@  c #29072F",
"#  c #2B092D",
"$  c #330C25",
"%  c #3A0F21",
"&  c #330B2B",
"*  c #3C0D2B",
"=  c #23182A",
"-  c #3E1D2B",
";  c #2B0731",
":  c #2D0933",
">  c #310935",
",  c #340939",
"<  c #3A093E",
"1  c #3D0B37",
"2  c #331334",
"3  c #3B1D31",
"4  c #36143B",
"5  c #391A3F",
"6  c #3F2629",
"7  c #2F273F",
"8  c #3D2331",
"9  c #3C2C3E",
"0  c #7A151E",
"q  c #502F1D",
"w  c #400F2C",
"e  c #5C1221",
"r  c #450F3C",
"t  c #451A3F",
"y  c #411534",
"u  c #5B202A",
"i  c #422335",
"p  c #432338",
"a  c #482934",
"s  c #562330",
"d  c #44313D",
"f  c #4C343B",
"g  c #4B3A3E",
"h  c #5B3D3A",
"j  c #56373A",
"k  c #733E27",
"l  c #643C36",
"z  c #7D4328",
"x  c #69463D",
"c  c #6A4037",
"v  c #744433",
"b  c #7A4631",
"n  c #7A4D34",
"m  c #794A39",
"M  c #7E523C",
"N  c #7A5536",
"B  c #3D0B40",
"V  c #3E1D43",
"C  c #3B1541",
"Z  c #2E2742",
"A  c #2E2946",
"S  c #302741",
"D  c #322A43",
"F  c #392D42",
"G  c #352E49",
"H  c #37304C",
"J  c #3A334D",
"K  c #3B3652",
"L  c #3F3A56",
"P  c #3F3A58",
"I  c #373251",
"U  c #420A45",
"Y  c #460B49",
"T  c #4C0C4E",
"R  c #4A1149",
"E  c #4E0C50",
"W  c #492A4E",
"Q  c #432548",
"!  c #4C3543",
"~  c #4B3A4B",
"^  c #45344A",
"/  c #503B41",
"(  c #4D2452",
")  c #59215C",
"_  c #433C55",
"`  c #4B3E52",
"'  c #433D5A",
"]  c #4F3354",
"[  c #513455",
"{  c #583A5D",
"}  c #642B66",
"|  c #612763",
" . c #68346A",
".. c #5C464D",
"X. c #4B445A",
"o. c #4C455A",
"O. c #584557",
"+. c #644442",
"@. c #755543",
"#. c #7E5842",
"$. c #775E58",
"%. c #795D5C",
"&. c #4D4164",
"*. c #4F4A65",
"=. c #5D4462",
"-. c #544E64",
";. c #574A6D",
":. c #5B486B",
">. c #55516A",
",. c #5B556A",
"<. c #555064",
"1. c #5C5871",
"2. c #614464",
"3. c #674F6C",
"4. c #794B62",
"5. c #67576E",
"6. c #735A64",
"7. c #6F4672",
"8. c #625F78",
"9. c #715A75",
"0. c #785A7A",
"q. c #6A6476",
"w. c #6A667C",
"e. c #69657C",
"r. c #74677C",
"t. c #8A171E",
"y. c #81262F",
"u. c #B22227",
"i. c #84492E",
"p. c #8C4B2C",
"a. c #854E22",
"s. c #8A502F",
"d. c #96532B",
"f. c #83543B",
"g. c #835E3E",
"h. c #985732",
"j. c #AA5726",
"k. c #AF5A28",
"l. c #A75827",
"z. c #B35E25",
"x. c #9D632F",
"c. c #90663C",
"v. c #A76F2F",
"b. c #A8672D",
"n. c #B46728",
"m. c #BB6B2A",
"M. c #B16227",
"N. c #AD752D",
"B. c #BC732B",
"V. c #BC7D2B",
"C. c #AE6736",
"Z. c #C16322",
"A. c #C27125",
"S. c #CC7625",
"D. c #C77A28",
"F. c #D07A26",
"G. c #825940",
"H. c #905E4B",
"J. c #A66A44",
"K. c #88546B",
"L. c #845673",
"P. c #83747C",
"I. c #85787F",
"U. c #C98229",
"Y. c #D2873C",
"T. c #D09334",
"R. c #DFB161",
"E. c #CCA076",
"W. c #E1BA6F",
"Q. c #6E6A81",
"!. c #786A86",
"~. c #777181",
"^. c #797484",
"/. c #7E7190",
"(. c #8A6C8C",
"). c #9F668B",
"_. c #837186",
"`. c #88758C",
"'. c #837B93",
"]. c #8C7A90",
"[. c #8A8492",
"{. c #8B8694",
"}. c #928E9B",
"|. c #AE829E",
" X c #A19590",
".X c #9A95A7",
"XX c #A299B0",
"oX c #CCB281",
"OX c #C7AD9A",
"+X c None",
/* pixels */
"+X+X+X+X+X+X+X+X+X+X+X+X+X+X+X+X+X+X+X+X+X+X+X+X+X+X+X+X+X+X+X+X+X+X+X+X+X+X+X+X+X+X+X+X+X+X+X+X+X+X+X+X+X+X+X+X+X+X+X+X+X",
"+X+X+X+X+X+X+X+X+X+X+X+X+X+X+X+X+X+X+X+X+X+X+X+X+X+X+X+X+X+X+X+X+X+X+X+X+X+X+X+X+X+X+X+X+X+X+X+X+X+X+X+X+X+X+X+X+X+X+X+X+X",
"+X+X+X+X+X+X+X+X+X+X+X+X+X+X+X+X+X+X+X+X+X+X+X+X+X+X+X+X+X+X+X+X+X+X+X+X+X+X+X+X+X+X+X+X+X+X+X+X+X+X+X+X+X+X+X+X+X+X+X+X+X",
"+X+X+X+X+X+X+X+X+X+X+X+X+X+X+X+X+X+X+X+X+X+X+X+X+X+X+X+X+X+X+X+X+X=.=.3.+X+X+X+X+X+X+X+X+X+X+X+X+X+X+X+X+X+X+X+X+X+X+X+X+X",
"+X+X+X+X+X+X+X+X+X+X+X+X+X+X+X+X+X+X+X+X+X+X+X+X+X+X+X+X+X+X+X=.; @ @ @ 2 P.6.+X+X+X+X+X+X+X+X+X+X+X+X+X+X+X+X+X+X+X+X+X+X",
"+X+X+X+X+X+X+X+X+X+X+X+X+X+X+X+X+X+X+X+X+X+X+X+X+X+X+X+X+X( Y Y , 2 3 8 i y o ! +X+X+X+X+X+X+X+X+X+X+X+X+X+X+X+X+X+X+X+X+X",
"+X+X+X+X+X+X+X+X+X+X+X+X+X+X+X+X+X+X+X+X+X+X+X+X+X+X+X+XQ < E E R i 8 8 2 $ X @ { _.+X+X+X+X+X+X+X+X+X+X+X+X+X+X+X+X+X+X+X",
"+X+X+X+X+X+X+X+X+X+X+X+X+X+X+X+X+X+X+X+X+X+X+X+X+X+X+X_.: T T R i 8 t r # . X # : @ C +X+X+X+X+X+X+X+X+X+X+X+X+X+X+X+X+X+X",
"+X+X+X+X+X+X+X+X+X+X+X+X+X+X+X+X+X+X+X+X+X+X+X+X+X+X+XC : T E t 8 i R T $ % X # ; B Y | +X+X+X+X+X+X+X+X+X+X+X+X+X+X+X+X+X",
"+X+X+X+X+X+X+X+X+X+X+X+X+X+X+X+X+X+X+X+X+X+X+X+X+X+X+X2 : Y T 3 - - r w % o & # @ U E E  .+X+X+X+X+X+X+X+X+X+X+X+X+X+X+X+X",
"+X+X+X+X+X+X+X+X+X+X+X+X+X+X+X+X+X+X+X+X+X+X+X+X+X+X9.; # > w % o o % % o % Y U ; : T E } +X+X+X4 +X+X+X+X+X+X+X+X+X+X+X+X",
"+X+X+X+X+X+X+X+X+X+X+X+X+X+X+X+X+X+X+X+X+X+X+X+X+X+X9.@ & % X X     X X $ U E E < ; : U } +X+X+X: +X+X+X+X+X+X+X+X+X+X+X+X",
"+X+X+X+X+X+X+X+X+X+X+X+X+X+X+X+X+X+X+X+X+X+X+X+X+X+X9.& o     O X = X 1 Y E E E < @ @ > ) +X+X+XQ W +X+X+X+X+X+X+X+X+X+X+X",
"+X+X+X+X+X+X+X+X+X+X+X+X+X+X+X+X+X+X+X+X+X+X+X+X+X+X9.& o . O t.e i T T E E E E U ; @ ; < (.+X+X+X3.+X+X+X+X+X+X+X+X+X+X+X",
"+X+X+X+X+X+X+X+X+X+X+X+X+X+X+X+X+X+X+X+X+X+X+X+X+X+X9.& . 0 u.y.a 8 T E T E E E Y > : ; U ) +X+X+X+X+X+X+X+X+X+X+X+X+X+X+X",
"+X+X+X+X+X+X+X+X+X+X+X+X+X+X+X+X+X+X+X+X+X+X+X+X+X+Xr.> $ e s i 3 , < B Y T E Y > > T : U E +X+XV +X+X+X+X+X+X+X+X+X+X+X+X",
"+X+X+X+X+X+X+X+X+X+X+X+X+X+X+X+X+X+X+X+X+X+X+X+X+X+X+Xy $ # @ # @ : ; @ : < U : ; > E B : R +X+X].7.+X+X+X+X+X+X+X+X+X+X+X",
"+X+X+X+X+X+X+X+X+X+X+X+X+X+X+X+X+X+X+X+X+X+X+X+X+X+X+Xp : @ @ @ @ B > @ @ ; @ ; ; U E B : T +X+X+X+X+X+X+X+X+X+X+X+X+X+X+X",
"+X+X+X+X+X+X+X+X+X+X+X+X+X+X+X+X+X+X+X+X+X+X+X+X+X+X6.+X+X@ # # , Y Y > @ ; @ @ > T E Y : } +X+X+X+X+X+X+X+X+X+X+X+X+X+X+X",
"+X+X+X+X+X+X+X+X+X+X+X+X+X+X+X+X+X+X+X+X+X+X+X+X+X6.+X+X+X'.: # Y E T T < : ; ; ; > U E , _.+X+X+X+X+X+X+X+X+X+X+X+X+X+X+X",
"+X+X+X+X+X+X+X+X+X+X+X+X+X+X+X+X+X+X+X+X+X+X+X+X6.+X+X+X+X+X].: > Y E E T E Y U > ; ; B , !.+X+X+X+X+X+X+X+X+X+X+X+X+X+X+X",
"+X+X+X+X+X+X+X+X+X+X+X+X+X+X+X+X+X+X+X+X+X+X+X6.+X+X+X+X+X+X+X].@ 4 (. .E E B , ; @ ; ; # R +X+X+X+X+X+X+X+X+X+X+X+X+X+X+X",
"+X+X+X+X+X+X+X+X+X+X+X+X+X+X+X+X+X+X+X+X+X+X6.+X+X+X+X+X+X+X+X+X+X[ 0.+X+X+X+X:. .W +X+X` : { +X+X+X+X+X+X+X+X+X+X+X+X+X+X",
"+X+X+X+X+X+X+X+X+X+X+X+X+X+X+X+X+X+X+X+X+X6.+X+X1.' &.+X+X+X+X+X+X+X4 +X+X+X+X+X+X .+X+X+X[ 4 +X+X+X+X+X+X+X+X+X+X+X+X+X+X",
"+X+X+X+X+X+X+X+X+X+X+X+X+X+X+X+X+X+X+X+X6.+X+X+X_ ` P ;.+X+X+X+X+X+X_.+X+X+X+X+X+X+X+X+X+X+X=.+X+X+X+X+X+X+X+X+X+X+X+X+X+X",
"+X+X+X+X+X+X+X+X+X+X+X+X+X+X+X+X+X+X+X+X+X+X+X-.k k.M &./.+X+X+X+X+X+X+X+X+X+X+X+X+X+X+X+X+X+X2.+X+X+X+X+X+X+X+X+X+X+X+X+X",
"+X+X+X+X+X+X+X+X+X+X+X+X+X+X+X+X+X+X+X+X+X+X+X<.z Z.m.~ ;.+X+X+X+X+X+X+X+X+X+X+X+X+X+X+X+X+X+X+X+X+X+X+X+X+X+X+X+X+X+X+X+X",
"+X+X+X+X+X+X+X+X+X+X+X+X+X+X+X+X+X4.L.r.+X+X+X-.a.F.C.! ' '.+XW.+X+X+X+X+X+X+X+X+X+X+X+X+X+X+X+X+X+X+X+X+X+X+X+X+X+X+X+X+X",
"+X+X+X+X+X+X+X+X+X+X+X+X+X+X+X+X6.+X=.1.+X+X+Xq.6 q j 2.G #.m.E.+X+X+X+X+X+X+X+X+X+X+X+X+X+X+X+X+X+X+X+X+X+X+X+X+X+X+X+X+X",
"+X+X+X+X+X+X+X+X+X+X+X+X+X+X+X6.+X+XX.5.+X+X+X+XX.= 7 ^ M A.G.:.XX+X+X+X+X+X+X+X+X+X+X+X+X+X+X+X+X+X+X+X+X+X+X+X+X+X+X+X+X",
"+X+X+X+X+X+X+X+X+X+X+X+X+X+X6.+X+X+X_ >.+X+X+X+XP.7 S +.F.n.! G ' ' !.!..X+X+X+X+X+X+X+X+X+X+X+X+X+X+X+X+X+X+X+X+X+X+X+X+X",
"+X+X+X+X+X+X+X+X+X+X+X+X+X6.+X+X+X+XX.H w.oXT.R.M H ` h.S.b S D K G I P P -.+X+X+X+X+X+X+X+X+X+X+X+X+X+X+X+X+X+X+X+X+X+X+X",
"+X+X+X+X+X+X+X+X+X+X+X+X6.+X+X+X+X+X+XS H ..g.U.c.#.V.V.n n S }.+Xq.-.G K ' /.+X+X+X+X+X+X+X+X+X+X+X+X+X+X+X+X+X+X+X+X+X+X",
"+X+X+X+X+X+X+X+X+X+X+X6.+X+X+X+X+X+X+X,.A A J v.D.A.M.h g N D +X+X+X+X5.D K X.+X+X+X+X+X+X+X+X+X+X+X+X+X+X+X+X+X+X+X+X+X+X",
"+X+X+X+X+X+X+X+X+X+X6.+X+X+X+X+X+X+X+X+X^.~.~.I.H.p.9 J / M D X.+X+X+X+XJ ~ :.+X+X+X+X+X+X+X+X+X+X+X+X+X+X+X+X+X+X+X+X+X+X",
"+X+X+X+X+X+X+X+X+X6.+X+X+X+X+X+X+X+X+X+X+X+X+X+X+X+X,.G g g.L K +X+X+X+X{.4.).+X+X+X+X+X+X+X+X+X+X+X+X+X+X+X+X+X+X+X+X+X+X",
"+X+X+X+X+X+X+X+X6.+X+X+X+X+X+X+X+X+X+X+X+X+X+X+X+X+X+XD A m ..' +X+X+X+X+XK.|.+X+X+X+X+X+X+X+X+X+X+X+X+X+X+X+X+X+X+X+X+X+X",
"+X+X+X+X+X+X+X+X+X+X+X+X+X+X+X+X+X+X+X+X+X+X+X+X+X+X XN g N..._ +X+X+X+X+X+X+X+X+X+X+X+X+X+X+X+X+X+X+X+X+X+X+X+X+X+X+X+X+X",
"+X+X+X+X+X+X+X+X+X+X+X+X+X+X+X+X+X+X+X+X+X+X+X+XOXY.b.D.N U.N F +X+X+X+X+X+X+X+X+X+X+X+X+X+X+X+X+X+X+X+X+X+X+X+X+X+X+X+X+X",
"+X+X+X+X+X+X+X+X+X+X+X+X+X+X+X+X+X+X+X+XQ.' K K ` @.D.S.B.S.b.+.q.+X+X+X+X+X+X+X+X+X+X+X+X+X+X+X+X+X+X+X+X+X+X+X+X+X+X+X+X",
"+X+X+X+X+X+X+X+X+X+X+X+X+X+X+X+X+X+X+X+XJ D S 9 x f.h.b n n d H P +X+X+X+X+X+X+X+X+X+X+X+X+X+X+X+X+X+X+X+X+X+X+X+X+X+X+X+X",
"+X+X+X+X+X+X+X+X+X+X+X+X+X+X+X+X+X+X+X%.b d j b i.h ~ J ^ s.g G P ,.+X+X+X+X+X+X+X+X+X+X+X+X+X+X+X+X+X+X+X+X+X+X+X+X+X+X+X",
"+X+X+X+X+X+X+X+X+X+X+X+X+X+X+X+X+X+X+XF l i.z.f Z Z S S A m p.9 H K %.+X+X+X+X+X+X+X+X+X+X+X+X+X+X+X+X+X+X+X+X+X+X+X+X+X+X",
"+X+X+X+X+X+X+X+X+X+X+X+X+X+X+X+X+X+X+XK G F l f l D S d +.s.m.v h c n.J.+X+X+X+X+X+X+X+X+X+X+X+X+X+X+X+X+X+X+X+X+X+X+X+X+X",
"+X+X+X+X+X+X+X+X+X+X+X+X+X+X+X+X+X+X+XP K D S 9 i.i.b p.j.j.k.d.l.l.l ^ *.+X+X+X+X+X+X+X+X+X+X+X+X+X+X+X+X+X+X+X+X+X+X+X+X",
"+X+X+X+X+X+X+X+X+X+X+X+X+X+X+X+X+X+X+X' ' _ H G F 9 9 9 F F 9 9 D F G J P q.+X+X+X+X+X+X+X+X+X+X+X+X+X+X+X+X+X+X+X+X+X+X+X",
"+X+X+X+X+X+X+X+X+X+X+X+X+X+X+X+X+X+X+XH K K G G D D D D S D J D D J L L L X.+X+X+X+X+X+X+X+X+X+X+X+X+X+X+X+X+X+X+X+X+X+X+X",
"+X+X+X+X+X+X+X+X+X+X+X+X+X+X+X+X+X+X+XS S G K H G H K _ J G D H L L L L L L Q.+X+X+X+X+X+X+X+X+X+X+X+X+X+X+X+X+X+X+X+X+X+X",
"+X+X+X+X+X+X+X+X+X+X+X+X+X+X+X+X+X+X+X^.S 7 D K J G H L J H J H L L L L P L P +X+X+X+X+X+X+X+X+X+X+X+X+X+X+X+X+X+X+X+X+X+X",
"+X+X+X+X+X+X+X+X+X+X+X+X+X+X+X+X+X+X+X+X^.G S S D H F K L K D G H L L L P L L w.+X+X+X+X+X+X+X+X+X+X+X+X+X+X+X+X+X+X+X+X+X",
"+X+X+X+X+X+X+X+X+X+X+X+X+X+X+X+X+X+X+X+X+X+Xo.D D S 7 D G K L J G H H J K K L X..X+X+X+X+X+X+X+X+X+X+X+X+X+X+X+X+X+X+X+X+X",
"+X+X+X+X+X+X+X+X+X+X+X+X+X+X+X+X+X+X+X+X+X+X+X}.F 7 D 7 S D H J L L L J J I L P X.+X+X+X+X+X+X+X+X+X+X+X+X+X+X+X+X+X+X+X+X",
"+X+X+X+X+X+X+X+X+X+X+X+X+X+X+X+X+X+X+X+X+X+X+X+X+X^.r.G S S S S H J K _ L L L L P w.+X+X+X+X+X+X+X+X+X+X+X+X+X+X+X+X+X+X+X",
"+X+X+X+X+X+X+X+X+X+X+X+X+X+X+X+X+X+X+X+X+X+X+X+X+X+X+X+X+X[.X.o.S S D H G K L L L P +X+X+X+X+X+X+X+X+X+X+X+X+X+X+X+X+X+X+X",
"+X+X+X+X+X+X+X+X+X+X+X+X+X+X+X+X+X+X+X+X+X+X+X+X+X+X+X+X+X+X+X+X+X[.[.o.S D S S G J >.+X+X+X+X+X+X+X+X+X+X+X+X+X+X+X+X+X+X",
"+X+X+X+X+X+X+X+X+X+X+X+X+X+X+X+X+X+X+X+X+X+X+X+X+X+X+X+X+X+X+X+X+X+X+X+X+X+X+X+X+X+X+X+X+X+X+X+X+X+X+X+X+X+X+X+X+X+X+X+X+X",
"+X+X+X+X+X+X+X+X+X+X+X+X+X+X+X+X+X+X+X+X+X+X+X+X+X+X+X+X+X+X+X+X+X+X+X+X+X+X+X+X+X+X+X+X+X+X+X+X+X+X+X+X+X+X+X+X+X+X+X+X+X",
"+X+X+X+X+X+X+X+X+X+X+X+X+X+X+X+X+X+X+X+X+X+X+X+X+X+X+X+X+X+X+X+X+X+X+X+X+X+X+X+X+X+X+X+X+X+X+X+X+X+X+X+X+X+X+X+X+X+X+X+X+X",
"+X+X+X+X+X+X+X+X+X+X+X+X+X+X+X+X+X+X+X+X+X+X+X+X+X+X+X+X+X+X+X+X+X+X+X+X+X+X+X+X+X+X+X+X+X+X+X+X+X+X+X+X+X+X+X+X+X+X+X+X+X",
"+X+X+X+X+X+X+X+X+X+X+X+X+X+X+X+X+X+X+X+X+X+X+X+X+X+X+X+X+X+X+X+X+X+X+X+X+X+X+X+X+X+X+X+X+X+X+X+X+X+X+X+X+X+X+X+X+X+X+X+X+X",
"+X+X+X+X+X+X+X+X+X+X+X+X+X+X+X+X+X+X+X+X+X+X+X+X+X+X+X+X+X+X+X+X+X+X+X+X+X+X+X+X+X+X+X+X+X+X+X+X+X+X+X+X+X+X+X+X+X+X+X+X+X"
};
