/* XPM */
static char *Nouveau_projet1679431399[] = {
/* columns rows colors chars-per-pixel */
"50 50 238 2 ",
"   c #141B06",
".  c #121904",
"X  c #251708",
"o  c #381309",
"O  c #35150E",
"+  c #1A260B",
"@  c #102D09",
"#  c #2C2B14",
"$  c #373A33",
"%  c #3B3129",
"&  c #4E1815",
"*  c #682D17",
"=  c #492A28",
"-  c #57352A",
";  c #563033",
":  c #673534",
">  c #6C3429",
",  c #592411",
"<  c #094B0A",
"1  c #0C560B",
"2  c #1C6E11",
"3  c #2C5034",
"4  c #2E7731",
"5  c #574938",
"6  c #5B422D",
"7  c #6D4C37",
"8  c #776632",
"9  c #513847",
"0  c #623850",
"q  c #563C60",
"w  c #345249",
"e  c #37664F",
"r  c #345264",
"t  c #3F687E",
"y  c #524753",
"u  c #7A5758",
"i  c #6D4E4E",
"p  c #4E7352",
"a  c #7B6158",
"s  c #585665",
"d  c #485469",
"f  c #78546B",
"g  c #755274",
"h  c #4F6F74",
"j  c #6F666F",
"k  c #822E1E",
"l  c #8F553A",
"z  c #A77636",
"x  c #895A5A",
"c  c #945E5C",
"v  c #905156",
"b  c #92654C",
"n  c #916B57",
"m  c #A56758",
"M  c #B57857",
"N  c #AA724D",
"B  c #85596A",
"V  c #885A78",
"C  c #8E5070",
"Z  c #896667",
"A  c #986767",
"S  c #956676",
"D  c #997978",
"F  c #887973",
"G  c #AD7466",
"H  c #A97974",
"J  c #AA706E",
"K  c #2C8914",
"L  c #4A961C",
"P  c #6B8F21",
"I  c #34A071",
"U  c #70A752",
"Y  c #5B8B6B",
"T  c #718D6E",
"R  c #6CAA6B",
"E  c #4B944C",
"W  c #A9963A",
"Q  c #958536",
"!  c #8A9151",
"~  c #B08F4D",
"^  c #ABB559",
"/  c #B1896C",
"(  c #91AC63",
")  c #C89053",
"_  c #C3B957",
"`  c #CBB352",
"'  c #CCBC67",
"]  c #B4C74E",
"[  c #D2CB58",
"{  c #3E209F",
"}  c #0C02BE",
"|  c #0F0ABD",
" . c #1B06B6",
".. c #1304BA",
"X. c #1B08B8",
"o. c #1A17B5",
"O. c #2C0EAF",
"+. c #3212AC",
"@. c #3B18A8",
"#. c #2309B3",
"$. c #2A0DB0",
"%. c #2B17AE",
"&. c #302BAA",
"*. c #421F9F",
"=. c #592C9B",
"-. c #4F3094",
";. c #683799",
":. c #733E98",
">. c #6B398A",
",. c #451CA6",
"<. c #451DA7",
"1. c #4B23A4",
"2. c #552AA1",
"3. c #5326A2",
"4. c #4E34A2",
"5. c #337692",
"6. c #3C59A7",
"7. c #3372AA",
"8. c #286888",
"9. c #4A5394",
"0. c #77488B",
"q. c #7D5387",
"w. c #774494",
"e. c #675390",
"r. c #496686",
"t. c #4E7795",
"y. c #746E91",
"u. c #4E74B1",
"i. c #696CA7",
"p. c #4857B5",
"a. c #0503C4",
"s. c #0802C0",
"d. c #0306C9",
"f. c #010BCF",
"g. c #030ED0",
"h. c #0612D2",
"j. c #0916D4",
"k. c #0B1BD6",
"l. c #0D1FD8",
"z. c #0F23DA",
"x. c #1125DA",
"c. c #1529DC",
"v. c #192DDD",
"b. c #1D32DE",
"n. c #2136DF",
"m. c #2338DF",
"M. c #2B3ECD",
"N. c #253BE1",
"B. c #283EE1",
"V. c #2C43E2",
"C. c #3047E3",
"Z. c #334AE4",
"A. c #394FE6",
"S. c #3C53E6",
"D. c #3F56E8",
"F. c #3F54D3",
"G. c #4057E7",
"H. c #455BE8",
"J. c #485FE9",
"K. c #4258E7",
"L. c #4C62EA",
"P. c #586EEC",
"I. c #5369EB",
"U. c #5C72ED",
"Y. c #6479EE",
"T. c #697EEF",
"R. c #6176EE",
"E. c #6A7EF0",
"W. c #546CC4",
"Q. c #824C8C",
"!. c #885588",
"~. c #8C558D",
"^. c #9A6786",
"/. c #8E7990",
"(. c #AF718C",
"). c #9D69A6",
"_. c #339294",
"`. c #3188A4",
"'. c #2DA295",
"]. c #4A8894",
"[. c #6A9396",
"{. c #4797A9",
"}. c #7286B2",
"|. c #71ACAE",
" X c #63A297",
".X c #3FC1BF",
"XX c #398AC6",
"oX c #4CB3C3",
"OX c #6C81EF",
"+X c #7285F0",
"@X c #788BF1",
"#X c #7E91F2",
"$X c #7084F0",
"%X c #6FB7C8",
"&X c #4EC8D4",
"*X c #92879A",
"=X c #AD9491",
"-X c #97B391",
";X c #8692A6",
":X c #AD9CAC",
">X c #B4AEB1",
",X c #9CA7A9",
"<X c #C5A884",
"1X c #CEBA9C",
"2X c #C3A794",
"3X c #C6B4A9",
"4X c #C4B4B3",
"5X c #D2CBAC",
"6X c #ABA7C9",
"7X c #A6A9D7",
"8X c #B6B7D9",
"9X c #B8B3C8",
"0X c #8B9AEB",
"qX c #8799F3",
"wX c #919CE5",
"eX c #99A4E7",
"rX c #8FA0F4",
"tX c #93A4F4",
"yX c #9DACF4",
"uX c #98A7F3",
"iX c #A4ADE6",
"pX c #A4B2F5",
"aX c #ABB9F6",
"sX c #AAB2E6",
"dX c #8CB2C3",
"fX c #C1B9C1",
"gX c #BCC7F7",
"hX c #B3C0CC",
"jX c #CDCED2",
"kX c #CDD6FA",
"lX c #D4DBFA",
"zX c #CAD2F2",
"xX c #DEE5EE",
"cX c #E7ECFB",
"vX c #EEF1F9",
"bX c #F7F9FD",
"nX c #E0E2E1",
"mX c #E0E4D6",
/* pixels */
"f.f.f.f.f.f.f.f.f.f.g.f.g.l.z.z.z.z.z.z.z.z.z.z.z.z.z.z.z.z.z.z.x.x.z.z.j.f.f.f.f.f.f.f.f.f.f.f.f.f.",
"f.f.f.f.f.f.g.f.f.f.f.h.z.z.z.z.z.z.x.x.v.N.N.N.B.B.N.B.n.v.z.z.x.x.z.z.x.z.f.f.f.f.f.f.f.f.f.f.f.f.",
"f.f.f.f.f.f.f.f.f.f.h.z.z.z.z.z.c.N.V.V.V.Z.C.C.V.C.C.V.C.V.C.V.b.x.x.x.z.z.z.f.f.f.f.f.f.f.f.f.f.f.",
"f.f.g.f.f.f.f.f.f.h.z.z.z.z.x.B.V.Z.G.J.L.J.H.H.K.K.H.L.L.L.J.D.C.C.m.x.z.z.z.z.g.f.f.f.f.f.f.f.f.f.",
"f.f.f.f.f.f.g.f.h.z.z.z.x.b.V.A.L.Y.#XeXyXrX+XY.U.R.E.#XyXiXeX@XU.L.C.V.c.z.z.z.z.f.f.f.f.f.f.f.f.f.",
"g.f.f.f.f.f.f.g.z.z.z.z.m.V.A.T.eXjX:XA e.D >XaXtXuXaX=Xc e.c fX9XwXP.Z.C.b.z.z.z.z.f.f.f.f.f.f.f.f.",
"f.f.f.f.f.g.f.k.z.z.z.m.C.S.R.6Xf j o.:.m v b 1XlXlX<XS !.J i 9.1.Z sXU.C.C.b.z.z.z.h.f.f.f.f.f.f.f.",
"f.f.f.f.f.g.h.z.z.z.b.C.C.U.eXc A 7 ~.f - g i./ nXcX` <.$.,.B g 0.A /.0XL.C.C.c.z.z.x.g.f.f.f.f.f.f.",
"f.f.f.f.g.g.l.z.z.x.V.V.I.@X4X=.$.2.J # i XX! *X-XaX9.| } ..1.G = y c 8XY.K.C.m.z.z.z.k.f.f.f.f.f.f.",
"f.f.f.f.g.j.z.z.z.N.C.J.$XaXnX6.d.#.!.p y 7.|.|.r.U.B.h.d.} @.F - {.D xXtXR.A.C.v.z.z.z.h.g.f.f.f.f.",
"f.f.f.f.g.l.z.z.x.V.A.Y.8X=X>XM.d.#.f = o 5._.e r x.c.j.f.} +.u + e u.5X3XeXP.C.B.z.z.z.k.g.f.f.f.f.",
"f.f.f.f.j.z.z.z.b.C.I.7XH g  Xw 4.1.c X < & # 4 d f.h.f.d.} +.V A &.z.%.w.H wXD.V.c.z.z.z.h.f.f.f.f.",
"f.f.g.f.l.z.z.z.B.A.#X*Xc : h # 7 ~.S ) R r.@ P 0.| d.} }  .@.w.;.X.d.} 2.g 6XU.C.b.z.z.z.k.f.f.f.g.",
"f.f.g.g.z.z.z.z.V.J.yX!.w.i + s u >.3.;.j ; = : ;.#... .1.0.~.m B 2.$.O.q.i / +XA.V.z.z.z.z.g.f.f.f.",
"f.f.f.j.z.z.z.c.C.I.yXy.X.C M B ;.+.#.$.;.i i Z ;.@.=.!.5 j ` , : i w.w.l h =X#XD.C.z.z.z.z.h.f.f.f.",
"f.f.g.k.z.z.z.b.C.I.pX=Xd m ;.@. .s.s.s.s.X.$.@.,.!.f y : _.4 1 o ].! m ;.o.jX#XL.V.c.z.z.z.k.f.f.f.",
"f.f.f.z.z.z.z.m.C.I.7Xx 5 B @...} a.d.d.a.s.}  .+.V & @   9 X . & & . > >.$.S eXL.C.c.z.z.z.z.f.f.f.",
"f.f.h.z.x.z.z.m.C.I.>X~.G :.O.} a.f.d.f.f.f.a.} $.~.W 2 < X q u.T t.* i / c A uXL.V.b.z.z.z.z.h.f.f.",
"f.f.k.z.z.z.x.B.C.L.aXi.b ;.O.} f.g.j.k.k.f.d.s.+.V ^ K < w R 8.7.p.6.& l >.,XqXH.C.b.z.z.z.z.h.f.f.",
"f.f.k.z.z.z.x.B.C.L.wX=X/ ;.+...d.k.k.k.k.k.f.a.-.h |.w X _.8..XoX{.W.C b ^.4X@XD.Z.b.z.z.z.z.h.f.f.",
"f.f.l.z.z.z.z.B.C.H.+XzXn ^.2.=.o.x.N.N.c.z.f.a.q 3 h w X R _.%XN ! {.C N y.sXOXS.C.b.z.x.z.z.k.f.f.",
"f.f.l.z.x.l.z.B.C.G.P.uX>X) (.W r Z.D.V.N.z.g.d.1.h + 1 < ].'.;XF /.t.v M 3XuXU.A.C.N.z.z.z.z.z.f.f.",
"f.f.z.z.x.x.x.B.C.A.P.qXgX5X' ] }.+XU.H.N.z.h.a.@.y @ K 2 w R |.).^.(.) 2XgX+XU.Z.C.N.z.z.z.z.z.f.f.",
"f.f.z.z.l.x.x.B.C.Z.P.E.yXkXbXvXlXpXOXD.n.k.f.a.$.f 6 ~ R 4 L E ( ^ _ 5XlXuXOXU.C.C.V.z.z.z.z.z.f.f.",
"f.f.z.z.z.z.z.V.C.C.U.T.rXgXcXbXcXyXI.n.j.a.} .. .<.<.1.s w h r.[.9XcXvXgXtXY.U.C.C.B.z.z.z.z.z.f.f.",
"g.f.z.z.z.z.z.V.C.C.U.T.rXkXcXnXdXT p Y 3 h =.=.,. ...s.f.z.B.U.aXcXbXcXgXrXY.U.C.C.B.z.z.z.z.z.f.f.",
"f.g.l.z.z.z.z.V.C.C.U.+XyXxX1X` ^ ( U K 3 U Q - g o.a.f.k.N.J.+XiXlXcXvXkXyXOXU.Z.C.B.z.z.z.z.z.f.f.",
"f.f.l.z.z.z.z.B.V.A.U.#XkX<X) ).! ).%XR 3 K K + 5 @.f.h.x.B.H.P.Y.[.[ ' 4XgX@XU.Z.C.B.x.z.z.z.l.f.f.",
"f.g.k.z.z.z.z.B.Z.S.U.pX<XN C Y ).N dX'.t.< < + p { d.h.l.B.B.A.B.e ~ (.) 3XyXU.A.C.B.z.z.z.z.l.f.f.",
"g.g.k.z.z.z.z.B.V.D.OX9XS v C ].T n %XI Y X d h 5 *.d.h.k.c.N.N.x.o.{ =.^.B 8XE.G.C.N.z.z.z.z.k.f.f.",
"f.f.k.z.z.z.z.N.C.L.#X2X~.u f W..X.XoX`.`.  p [.d { a.f.k.k.k.k.j.d...O.:.N =XqXH.C.N.z.z.z.z.j.f.f.",
"f.f.j.z.z.z.z.N.C.L.uX;X!.k & 7.6.7.I R $ 1 L ] V $.s.f.g.j.k.j.d.d.s.#.;.b ;XyXL.C.N.z.z.z.z.h.g.f.",
"f.f.g.z.x.z.z.N.V.L.7XA S / s * 9.j t.; . < 2 z :.$...s.f.f.f.f.d.a.} O.Q.M ^.7XL.C.n.z.z.z.z.g.f.f.",
"f.f.g.z.z.z.z.b.V.I.yXV $.0.:   * o + & d   . - Q.+. .s.s.a.d.a.a.s. .,.x y B 7XI.C.v.z.z.z.x.f.g.f.",
"f.f.f.k.z.z.z.c.Z.L.qXjX&.w.M ! t.X < E {.: y a w.<.@.O.X.} } } ..#.@.;.m d >XtXI.C.v.z.z.z.k.f.f.f.",
"f.f.g.j.z.z.z.z.V.L.qX=Xs b w.~.i = * _ s - 0.=.1.:.Z f i =.O.#.O.>.V M !.X.*XrXJ.V.c.z.z.z.j.f.f.f.",
"f.f.f.g.l.z.z.z.V.S.#XH b 0.#.#.3.S G w.;.+.....#.w.= % y j :.=.Q.i s + Z Q.S qXD.V.z.z.z.x.f.f.f.f.",
"f.f.f.f.l.z.z.z.N.Z.U.6Xf <.} a. .;.:.@. .s.d.f.| !.L @ h U M S !.8 % h : g :XE.C.m.z.z.z.k.f.f.f.f.",
"f.g.f.f.h.z.z.z.c.V.J.rXH Q.&.k.-.b V O.} d.g.j.f.d 3 # = < X c ,.-.e  Xf H wXJ.C.v.z.z.x.h.f.f.f.f.",
"f.f.f.f.g.k.z.z.z.V.Z.U.eX3XjX].e X u O.s.f.j.b.v.w E _.t.O 9 f  .d.F.>X3XiXU.C.V.x.z.z.z.f.f.f.f.f.",
"f.f.f.f.g.h.z.z.z.b.V.S.U.tXzX! {.$ D +.s.d.j.Z.I.Y ;X|.5.0 E !.#.s.9.mXyXY.D.C.b.x.z.z.h.f.f.f.f.f.",
"f.f.f.f.f.g.l.z.z.z.V.C.J.T.7XB ; - J ,.X.s.o.h gX( / T 7.: , ^.2.+.:.9XOXL.V.V.z.z.z.z.f.f.f.f.f.f.",
"f.f.f.f.f.f.g.z.z.z.c.V.C.I.qX^.A =.V v <.O.2.` cXmXG i.C 5 !.q.6 J n eXI.C.C.c.z.z.z.h.f.f.f.f.f.f.",
"f.f.f.f.f.f.f.j.z.z.z.v.C.Z.I.sXZ 4.r.i J ^.J 1XkXkX1Xm n G 2.&.j V 7XU.A.C.b.z.z.z.j.f.f.f.f.f.f.f.",
"f.f.f.f.f.f.f.f.l.x.z.z.v.C.C.P.wX8X>XA y.D >XaXtXrXpX8X(.y.Z >X8XwXU.Z.C.b.z.z.z.z.f.f.f.f.f.f.f.f.",
"f.f.g.f.f.f.f.f.g.l.z.z.x.c.V.C.K.R.E.eXuXqX+XU.U.U.Y.OXqXtXeX$XU.K.Z.V.c.z.z.z.z.g.f.f.f.f.f.f.f.f.",
"f.f.f.f.f.f.f.f.g.g.z.z.z.z.x.N.C.C.A.G.K.K.D.D.S.S.S.D.G.G.D.S.C.Z.n.z.z.z.z.z.f.f.f.f.f.f.f.f.f.f.",
"f.f.f.f.g.f.f.f.f.f.g.l.z.z.z.l.x.b.B.C.C.C.C.C.C.C.C.C.C.C.C.B.b.x.z.z.z.z.z.h.f.f.f.f.f.f.f.f.f.f.",
"f.f.f.f.f.f.f.f.f.f.f.g.l.l.z.z.z.z.z.x.v.b.b.N.N.N.b.b.v.c.x.z.z.z.z.z.z.l.g.g.f.f.f.f.f.f.f.g.f.f.",
"f.f.f.f.f.f.f.f.f.f.f.f.g.j.z.z.z.z.z.z.z.z.z.z.z.z.z.z.z.z.z.z.z.z.z.z.k.g.g.g.f.f.f.f.f.f.f.f.f.f."
};
