/* XPM */
static char *result[] = {
/* columns rows colors chars-per-pixel */
"61 61 124 2 ",
"   c #0A141F",
".  c #0B1523",
"X  c #141723",
"o  c #1F1723",
"O  c #171827",
"+  c #1B1824",
"@  c #161A2C",
"#  c #1A1A2D",
"$  c #171D33",
"%  c #1A1E33",
"&  c #281721",
"*  c #211926",
"=  c #2C1A26",
"-  c #231B2B",
";  c #2B1B2B",
":  c #311A26",
">  c #3D1B26",
",  c #331D2D",
"<  c #3D1E2C",
"1  c #221F34",
"2  c #2E1E30",
"3  c #351F30",
"4  c #381F31",
"5  c #19202F",
"6  c #1C2035",
"7  c #1D223A",
"8  c #212236",
"9  c #2D2134",
"0  c #24253B",
"q  c #28273F",
"w  c #26283E",
"e  c #28293F",
"r  c #342134",
"t  c #3A2033",
"y  c #451D29",
"u  c #4C1F2C",
"i  c #521F2C",
"p  c #4C202E",
"a  c #54212E",
"s  c #5B212E",
"d  c #422233",
"f  c #4C2435",
"g  c #43263E",
"h  c #4C2539",
"j  c #4E2A3A",
"k  c #542435",
"l  c #5C2535",
"z  c #55293E",
"x  c #5F293E",
"c  c #6D232F",
"v  c #652432",
"b  c #6D2533",
"n  c #642A3C",
"m  c #712635",
"M  c #75293B",
"N  c #7F2B3C",
"B  c #242641",
"V  c #282740",
"C  c #262942",
"Z  c #2B2B44",
"A  c #2E2E49",
"S  c #302E4A",
"D  c #2F304C",
"F  c #32314D",
"G  c #363452",
"H  c #393655",
"J  c #3B3758",
"K  c #3D395B",
"L  c #472D45",
"P  c #482E46",
"I  c #522C43",
"U  c #5B2B43",
"Y  c #413C5F",
"T  c #692D45",
"R  c #7C2E43",
"E  c #753147",
"W  c #7B334B",
"Q  c #793752",
"!  c #413C60",
"~  c #842C3D",
"^  c #832E41",
"/  c #892E42",
"(  c #843046",
")  c #8C3146",
"_  c #843149",
"`  c #893248",
"'  c #913147",
"]  c #93364E",
"[  c #9A364E",
"{  c #843A57",
"}  c #8E3954",
"|  c #9D3750",
" . c #933A54",
".. c #9D3953",
"X. c #9A3E5C",
"o. c #A23A55",
"O. c #A53E5B",
"+. c #A83E5C",
"@. c #9D405E",
"#. c #AA405F",
"$. c #A44363",
"%. c #AC4364",
"&. c #AF4668",
"*. c #AB496C",
"=. c #B14567",
"-. c #B14769",
";. c #B3496D",
":. c #B64C72",
">. c #B94E74",
",. c #BB5077",
"<. c #BD527B",
"1. c #C1547E",
"2. c #C45681",
"3. c #C65884",
"4. c #C95986",
"5. c #CC5C8A",
"6. c #D05F8E",
"7. c #CE618D",
"8. c #D0608F",
"9. c #D36191",
"0. c #D66C9A",
"q. c #D86D9C",
"w. c #D6729E",
"e. c None",
/* pixels */
"e.e.e.e.e.1.%.-.9.5.%.[ =.4.+.1.>.#.8.q.;.-.8.8.8.4.;.+.5.9.:.o.o.5.=.;.2.O.1.q.w.0.8.#.;.1.+.5.=.| %.6.8.;.%.1.e.e.e.e.e.",
"e.e.e.2.o.,.<.2.5.8.2.,.;.=.;.5.4.-.-.7.1.,.4.8.;.:.1.1.4.8.4.,.:.=.;.1.8.;.%.4.0.8.-.;.4.5.;.-.;.>.1.6.4.1.1.,.o.2.e.e.e.",
"e.e.>.2.>.<.5.<.;.3.9.5.,.;.1.,.1.2.;.4.5.1.;.3.,.,.4.2.;.1.6.6.1.;.<.<.,.4.:.1.4.4.;.1.1.,.1.;.,.5.8.4.;.1.4.1.:.2.>.e.e.",
"e.O.;.2.5.,.,.:.%.<.5.1.1.6.,.#.>.8.8.,.1.:.%.1.5.1.,.,.%.:.4.4.<.5.2.%.=.5.9.1.;.1.8.9.:.#.,.6.1.1.5.1.%.;.<.,.5.2.;.O.e.",
"e.<.<.2.<.$.;.<.<.1.<.%.-.5.#.;.1.1.5.@.| %.<.1.1.&.%.<.,.<.2.:.#.4.;.%.<.<.5.;.[ +.5.2.<.;.#.4.-.%.<.1.,.<.:.O.<.2.<.,.e.",
"6.&.:.5.1.,.<.:.%.4.&.-.1.1.4.-.o.%.<.N ) o.%.4.2.<.,.,.#.2.:.#.,.<.3.>.O.O.<. .c ^ <.%.o.&.4.2.<.-.%.5.%.;.<.,.1.5.:.;.8.",
"6.%.%.3.<.&.,.$.~ &.+.] @.<.;.) ..&._ < s ' .. .,.:.;.,.R #.%.[  .,.>.X.` %.| k & < ` $. .` ;.<.@.] O.%./ $.,.&.<.3.=.%.6.",
"6.>.:.,.;.%.$.E a [ R p n -.) a W @.> O = v ) N Q } ..X.~ ~ R l p $...v l %.k o . O > @.W a ' ;.n p R [ k E $.%.;.,.;.:.9.",
"4.2.3.>.O.:.] y - R r O f ) s o k R ; # X = v R - U ' c ( v : X , ( m : ; ` d # # # ; R k o s ` k # 4 E - y ` :.#.,.2.2.4.",
"O.1.9.5.<.+.o.n X - $ U ( s * O < M ` ; $ @ X X % T ) s * X X t ` b : X ; v ` f O 2 ( M 4 O o v ( U % - X n o.#.,.5.9.1.O.",
"2.6.5.3.2.2.-.^ y X % 9 < ; 5 6 - , t 8 6 6 # X T ~ a * 5 5 6 9 4 ; - 6 8 ; , 9 6 9 t , - 6 # ; , 9 $ X y ( -.2.1.1.6.6.4.",
"9.5.>.-.<.:.] ~ M X 7 A S Z 0 A F A 0 6 0 0 1 5 j f ; @ F 0 7 Z A D 0 e F S w 8 8 0 # C F F e # q A 8 X M ~ ] :.<.;.:.5.9.",
"1.2.:.%.<.%.] ` R : 8 A H H 0 H K F w % 8 0 # 6 5 O @ 1 F 8 8 Z G J Z A ! G A 6 6 w # S G F w % A A 8 : N _ ] %.<.=.:.2.1.",
"O.1.5.<.<.<.1.X.m b = + 6 Z 0 H A # # # # $ # # # # # # # # # # % V 0 D H # # # # # # # # # # # # # = b m @.1.<.<.<.5.1.O.",
"<.1.2.>.O.,.&...] ] m , $ 6 7 Z w # % $ 5 5 # 6 # # % # % $ % % 6 6 8 C Z # % $ $ 5 5 $ # # % # @ 3 b ] ] o.%.>.#.,.<.<.,.",
"5.-.>.3.:.<.<.{ 3 g ( z 6 7 8 0 8 8 6 6 7 6 6 6 6 7 6 6 6 6 6 6 6 6 8 8 0 8 6 6 7 6 7 6 8 6 6 6 6 z _ g , { 1.<.:.3.:.;.5.",
"6.<.<.4.2.5.*.E d O f L C 1 q 8 8 C C F F F S C e 0 e F F F A Z S 1 w 0 % C C A F F F Z w w 8 A S L h @ d W *.5.2.4.1.<.6.",
"9.6.2.>.<.2.] ~ R X . w S % V % 1 C Z G H H G C F e Z Y H G S A G 1 8 8 1 C C S H H H Z A A 0 Y K 0 . X R ~ ] 2.<.>.1.6.9.",
"5.3.-.#.,.O.| / i X O % # # # # # # # # # # # % G A Z J 6 # # # # @ @ # # # # # # # - # A G 0 J V % X X i / | O.,.%.;.3.5.",
"+.>.3.1.O.../ u + $ $ % % # # # # % % # # # # % 0 7 w A % % % % % # # # # # % % # # # % 6 0 0 D 0 $ $ $ + u ~ o.O.<.3.>.+.",
"2.5.5.,.| ~ y o O @ $ $ % $ $ # # % 5 $ $ % $ $ $ 6 7 7 % $ $ $ $ $ % $ @ $ % # # % % $ $ 5 7 7 $ $ $ $ . > N o.| 2.5.:.| ",
"q.3.<.2.-. .f o # h 1 % 6 % % % % % 6 # % % 6 6 6 7 6 6 6 6 6 7 % 6 7 % % 6 6 6 % % % % % 7 7 5 % $ 7 $ = l / o.%.>.<.,.;.",
"3.%.>.9.6.<. .k d ` 4 1 q 8 0 w V w 8 0 0 w w C 0 0 0 w 0 w 7 0 w 8 8 w e e 8 8 0 0 e e B 0 w w 0 8 # X v / | %.<.%.;.5.6.",
"O.:.4.5.<.$.&.%./ v ; A S % Z H Y H 0 Z Z F K K D Z G J A H Z 0 H 1 w F Y K w q A A K K G Z D H F 6 X O R ~ } 5.2.1.3.5.6.",
"3.5.,.=.<.O./ l ; ; # % 1 # % 8 F K 8 % % 6 0 7 6 1 6 8 % 8 % % 1 # % % Z Y C 8 1 % 0 8 8 % 6 7 6 z n 6 - Q ,.2.1.5.>.;.6.",
";.1.<.=.%.:...v = @ # % $ % $ @ 0 C 8 % % # O # # # $ # # # # % $ % % @ % Z 0 % $ % # @ # $ # # 5 f ( T x } :.,.&.2.,.:.5.",
"=.-.1.1.;.4.,.o.m : % 5 % % % 6 % % 8 6 % % # 6 5 6 6 6 % % % % % 6 6 % $ $ 1 % % % % % 6 6 6 6 5 = s ) ) ..;.<.%.>.3.1.;.",
"4.=.;.6.4.1.,.$.( b ; # 8 w 8 0 0 w 0 8 8 w w w 7 7 0 0 0 0 0 0 8 0 0 8 w w w 6 8 8 0 w 0 6 8 0 0 5 * s b @.,.,.<.,.4.1.O.",
"o.:.1.,.O.:. .p , ` t @ w H 8 w G H Z 6 0 G K J 8 6 Z K K F D w % H q 8 D K F 6 8 A K Y Z 5 0 H Y H 0 + R ( ~ #.<.#.;.3.6.",
"| <.8.3.:.%.| k X t 1 # % 0 # 6 0 B 7 $ 6 7 w B V 0 e F V 7 7 7 6 0 % % 8 B 7 % % 7 w B Z w 0 F A 7 6 X v ~ #.3.1.:.1.6.8.",
":.5.8.4.2.>.%.R : O % 6 % % 6 # # 6 6 6 6 6 # 6 w 0 0 w 6 6 5 5 6 5 6 1 % % 6 6 6 % % % 0 0 7 w 6 6 5 X = N #.,.1.4.6.4.>.",
"9.6.1.>.<.2.O.~ v X 6 C Z Z 8 w Z C w 6 0 8 8 Z Z w 8 8 C 0 7 V Z Z 8 0 Z C e 8 8 0 6 w Z e 0 6 Z 7 9 t X k | #.;.3.6.1.| ",
"5.4.;.#.<.#.^ R ^ + 0 G K J w G Y H Z % q 0 8 J K G w % H 0 8 S J Y C A ! J S 8 8 C % G Y H C 1 F Z 4 ` 4 u  .,.O.,.2.;.o.",
"+.1.3.,.<.,.>.X.b s - @ B A 0 H S 1 % # # # # 1 1 % % # % # % 1 8 S q A J 8 % # # % # % 1 % 1 @ % # : m ( $.,.2.5.5.:.%.4.",
";.1.3.,.%.<.:...' ' i ; $ 7 8 F C # $ % % % $ $ O % % O $ $ % $ % 6 8 C A # $ $ % % % $ # # # @ $ $ # : m ..>.4.;.2.<.;.=.",
"4.:.<.<.&.,.:.} U T / h 5 % 8 w 8 % % 6 % % % 6 % % % % % % % 6 6 6 8 0 w % % 6 % % % % % % % % % 6 % X ; v ..>.%.%.<.1.;.",
"6.:.>.5.2.2.,.Q - % T I 0 6 0 8 1 w 0 C C e B w 0 0 8 e e e w 0 w 8 0 8 1 0 0 w e C e w 0 0 8 e C 0 1 ; ; l ` O.<.%.,.6.4.",
"6.5.3.<.2.5. .^ R + X Z G % C 8 0 Z Z J Y Y H A A q C Y Y Y G F H 1 q 0 % Z Z H Y K K S A C 0 K ! Z ; v ` *.%.O.<.5.4.;.o.",
"9.5.;.#.<.%.| / v X X % 1 # % # % 1 1 1 8 8 1 % H Z Z Y 0 1 1 % 8 # % % # 1 % 1 8 1 8 % F G q K A # , ` < l  .<.6.9.:.=.4.",
";.<.<.>.%.../ v = O % % # # # # @ @ % # # O $ $ B w Z F % # % $ $ # O # # # # # # # # # 0 C 0 F 0 @ 9 h # o k  .;.1.1.2.0.",
"| ;.5.3.o.| N > . $ $ 5 $ $ $ % # % $ # $ # $ 5 $ 6 0 B $ $ $ $ $ $ % # % % $ # # # $ $ $ $ 8 B 7 $ $ @ @ . & c [ :.4.0.q.",
"O.>.3.<.O.../ u O $ $ 6 6 $ $ % % 6 % # % $ 5 6 5 6 7 6 6 7 $ % $ 6 $ % # $ 5 % % % 5 % $ 7 6 7 5 $ % 2 # O < R O.>.3.7.q.",
"5.3.;.#.>.O.| ^ u X % 8 8 8 8 8 8 8 8 8 8 7 8 8 7 8 6 8 7 7 1 8 8 7 7 8 8 8 8 8 8 8 8 8 8 7 8 0 0 # 4 _ ; > _ <.5.6.;.;.8.",
"9.6.2.:.1.2.] ~ R + . e S % Z G J F 0 C Z F J J D Z D H A H Z 0 G 8 0 F J H w e Z A H K F Z Z H F 6 , M R @.&.%.2.9.2.;.#.",
"9.1.1.3.2.5.*.W d @ f P Z # 0 Z J J 8 0 0 V A Z w 0 V Z 0 Z 0 % Z % 1 q F ! B 8 8 w Z A C 0 w Z V 6 - < k W ..o.<.>.1.2.>.",
"5.;.:.3.:.<.<.{ 4 g ( I % # @ @ B G 8 % @ # @ % @ @ # # # # # % # # # # 7 G B % % # # @ # # @ # # # @ O o a ` -.;.%.>.4.1.",
"<.<.2.>.O.,.=.| [ ] b 4 $ $ $ % $ 7 8 $ $ % # % 5 % % $ # % 5 6 % $ $ % 6 $ 8 % $ $ # % 6 % % $ % # # * s ) ;.4.#.>.1.:.+.",
"O.1.5.<.,.<.1.X.b b ; # % 1 8 8 8 8 8 8 8 1 7 8 7 8 8 7 8 6 7 7 7 8 8 7 8 8 8 8 8 1 8 7 7 8 7 8 6 % ; s ) &.1.2.4.6.;.=.3.",
"1.1.>.%.<.%.` ` R ; 8 % 0 G 1 w F G Z % w S J G % % C H H Z Z w 8 F B 8 A H A 8 6 A G J Z 6 $ % F V 3 ) f n @.<.-.1.<.;.-.",
"9.5.>.=.1.>.] / M X 0 6 1 Z % 1 Z Z 8 % 8 Z S A z f t D D Z V 7 # Z 1 % V A w % 6 V F Z L z 4 O A A 9 U + p ] &.%.1.5.>.[ ",
"2.6.5.2.2.2.-.^ y X % 9 , - O @ - , 4 % $ $ X X T ^ i * $ @ $ 8 4 ; - @ # ; 4 1 6 5 O   f _ b : 6 0 6 $ r R o.=.<.5.9.2.%.",
"+.1.9.5.<.+.o.n X - % U / v * O < M _ 2 $ @ X X % T ' i + X . t ` m : X ; b ) h # 6 X X @ g ] v : X X - E [ -.4.2.<.4.6.6.",
"3.2.2.,.O.:.] y - R 3 O k / i * k R ; # . = v R - U ' b R v : X 3 ( m : ; ` d # O + a R d 3 ] m R M y X * a ) %.<.%.;.5.9.",
"9.:.:.,.-.%.$.E i [ W u n -.' i W X.> X = v / N Q } o.X.^ / N k u $...b l $.k o * p ~ ~ W { ..@.` ~ ^ n y E $.;.<.:.<.1.;.",
"6.%.&.4.<.&.>.$./ %.O.] @.2.;.' ..*._ < v ' | } ,.:.:.:.^ O.%.[ } >.>.../ -. .k y ~ |  .*.1.&.<.] ] -.o.] $.,.<.;.<.3.1.%.",
"6.-.>.5.<.,.<.:.%.5.%.&.<.2.3.=.o.%.<.R / o.&.5.2.,.<.>.%.2.>.%.,.2.3.>.O.O.<. .~ | #.2.4.,.,.<.%.:.2.O.:.%.&.,.$.,.<.,.<.",
"e.<.<.2.<.$.:.<.<.2.<.%.-.4.+.;.<.2.5.O...%.<.1.1.&.%.<.<.<.2.:.$.5.-.%.<.1.5.;.[ o.>.1.2.:.#.<.<.<.<.<.+.;.<.1.<.5.:.o.e.",
"e.O.;.2.5.,.<.:.#.<.5.1.1.6.>.%.>.6.6.,.1.:.%.<.5.1.>.<.#.>.3.3.>.5.2.&.=.4.9.1.1.1.%.:.4.4.:.<.%.;.2.5.,.<.3.5.2.2.2.2.e.",
"e.e.>.2.>.<.4.<.;.4.9.5.<.;.1.>.1.2.:.3.5.<.;.4.>.>.3.3.;.1.6.6.1.:.<.<.1.3.;.1.5.4.-.1.1.;.1.4.:.,.5.9.2.;.=.:.<.;.,.e.e.",
"e.e.e.2...>.2.2.5.6.3.>.;.%.:.5.2.;.;.5.1.>.4.6.;.:.1.2.3.6.4.<.;.=.-.1.6.;.=.2.5.:.3.6.1.;.<.1.2.5.6.1.4.;.=.=.<.O.e.e.e.",
"e.e.e.e.e.1.%.-.6.5.%.| -.5.O.1.:.%.6.q.;.;.6.8.9.5.;.O.5.9.>.| O.4.=.;.3.O.3.q.2.#.5.8.8.5.<.O.1.9.3.O.3.8.6.6.e.e.e.e.e."
};
