/* XPM */
static char *result[] = {
/* columns rows colors chars-per-pixel */
"61 61 25 1 ",
"  c #9CB7CC",
". c #9DB8CC",
"X c #9EB8CC",
"o c #9EB9CD",
"O c #9FB9CD",
"+ c #9FBACD",
"@ c #A0BACD",
"# c #A0BACE",
"$ c #A1BACE",
"% c #A1BBCE",
"& c #A2BBCF",
"* c #A2BCCF",
"= c #A3BCCF",
"- c #A4BDCF",
"; c #A4BDD0",
": c #A5BDD0",
"> c #A5BED0",
", c #A6BED1",
"< c #A6BFD1",
"1 c #A7BFD1",
"2 c #A8C0D2",
"3 c #A9C0D2",
"4 c #A9C1D2",
"5 c #AAC1D3",
"6 c white",
/* pixels */
"                                                             ",
"                                                             ",
"                                                             ",
".............................................................",
".............................................................",
".............................................................",
".............................................................",
"XXXXXXXXXXXXXXXXXXXXXXXXXXXXXXXXXXXXXXXXXXXXXXXXXXXXXXXXXXXXX",
"XXXXXXXXXXXXXXXXXXXXXXXXXXXXXXXXXXXXXXXXXXXXXXXXXXXXXXXXXXXXX",
"ooooooooooooooooooooooooooooooooooooooooooooooooooooooooooooo",
"ooooooooooooooooooooooooooooooooooooooooooooooooooooooooooooo",
"ooooooooooooooooooooooooooooooooooooooooooooooooooooooooooooo",
"OOOOOOOOOOOOOOOOOOOOOOOOOOOOOOOOOOOOOOOOOOOOOOOOOOOOOOOOOOOOO",
"OOOOOOOOOOOOOOOOOOOOOOOOOOOOOOOOOOOOOOOOOOOOOOOOOOOOOOOOOOOOO",
"OOOOOOOOOOOOOOOOOOOOOOOOOOOOOOOOOOOOOOOOOOOOOOOOOOOOOOOOOOOOO",
"+++++++++++++++++++++++++++++++++++++++++++++++++++++++++++++",
"@@@@@@@@@@@@@@@@@@@@@@@@@@@@@@@@@@@@@@@@@@@@@@@@@@@@@@@@@@@@@",
"#############################################################",
"#############################################################",
"#############################################################",
"$$$$$$$$$$$$$$$$$$$$$$$$$$$$$$$$$$$$$$$$$$$$$$$$$$$$$$$$$$$$$",
"%%%%%%%%%%%%%%%%%%%%%%%%%%%%%%%%%%%%%%%%%%%%%%%%%%%%%%%%%%%%%",
"%%%%%%%%%%%%%%%%%%%%%%%%%%%%%%%%%%%%%%%%%%%%%%%%%%%%%%%%%%%%%",
"%%%%%%%%%%%%%%%%%%%%%%%%%%%%%%%%%%%%%%%%%%%%%%%%%%%%%%%%%%%%%",
"%%%%%%%%%%%%%%%%%%%%%%%%%%%%%%%%%%%%%%%%%%%%%%%%%%%%%%%%%%%%%",
"&&&&&&&&&&&&&&&&&&&&&&&&&&&&&&&&&&&&&&&&&&&&&&&&&&&&&&&&&&&&&",
"&&&&&&&&&&&&&&&&&&&&&&&&&&&&&&&&&&&&&&&&&&&&&&&&&&&&&&&&&&&&&",
"*************************************************************",
"*************************************************************",
"=============================================================",
"=============================================================",
"=============================================================",
"=============================================================",
"=============================================================",
"-------------------------------------------------------------",
";;;;;;;;;;;;;;;;;;;;;;;;;;;;;;;;;;;;;;;;;;;;;;;;;;;;;;;;;;;;;",
";;;;;;;;;;;;;;;;;;;;;;;;;;;;;;;;;;;;;;;;;;;;;;;;;;;;;;;;;;;;;",
";;;;;;;;;;;;;;;;;;;;;;;;;;;;;;;;;;;;;;;;;;;;;;;;;;;;;;;;;;;;;",
";;;;;;;;;;;;;;;;;;;;;;;;;;;;;;;;;;;;;;;;;;;;;;;;;;;;;;;;;;;;;",
":::::::::::::::::::::::::::::::::::::::::::::::::::::::::::::",
">>>>>>>>>>>>>>>>>>>>>>>>>>>>>>>>>>>>>>>>>>>>>>>>>>>>>>>>>>>>>",
">>>>>>>>>>>>>>>>>>>>>>>>>>>>>>>>>>>>>>>>>>>>>>>>>>>>>>>>>>>>>",
">>>>>>>>>>>>>>>>>>>>>>>>>>>>>>>>>>>>>>>>>>>>>>>>>>>>>>>>>>>>>",
",,,,,,,,,,,,,,,,,,,,,,,,,,,,,,,,,,,,,,,,,,,,,,,,,,,,,,,,,,,,,",
",,,,,,,,,,,,,,,,,,,,,,,,,,,,,,,,,,,,,,,,,,,,,,,,,,,,,,,,,,,,,",
",,,,,,,,,,,,,,,,,,,,,,,,,,,,,,,,,,,,,,,,,,,,,,,,,,,,,,,,,,,,,",
"<<<<<<<<<<<<<<<<<<<<<<<<<<<<<<<<<<<<<<<<<<<<<<<<<<<<<<<<<<<<<",
"1111111111111111111111111111111111111111111111111111111111111",
"1111111111111111111111111111111111111111111111111111111111111",
"1111111111111111111111111111111111111111111111111111111111111",
"1111111111111111111111111111111111111111111111111111111111111",
"2222222222222222222222222222222222222222222222222222222222222",
"2222222222222222222222222222222222222222222222222222222222222",
"2222222222222222222222222222222222222222222222222222222222222",
"2222222222222222222222222222222222222222222222222222222222222",
"2222222222222222222222222222222222222222222222222222222222222",
"3333333333333333333333333333333333333333333333333333333333333",
"4444444444444444444444444444444444444444444444444444444444444",
"4444444444444444444444444444444444444444444444444444444444444",
"4444444444444444444444444444444444444444444444444444444444444",
"5555555555555555555555555555555555555555555555555555555555555"
};
