/* XPM */
static char *_4059375b8c949e7d1fffc7745e3464frxw7xRMwYLzfTthQ[] = {
/* columns rows colors chars-per-pixel */
"61 61 186 2 ",
"   c None",
".  c #0D141E",
"X  c #0E1521",
"o  c #121724",
"O  c #131926",
"+  c #171728",
"@  c #1B172B",
"#  c #151A2A",
"$  c #1A1B2D",
"%  c #171D33",
"&  c #191F34",
"*  c #1A1F35",
"=  c #1B1F34",
"-  c #181E35",
";  c #1A1E32",
":  c #251733",
">  c #221B34",
",  c #281936",
"<  c #251D38",
"1  c #2A1C3B",
"2  c #311A3E",
"3  c #1A202F",
"4  c #1B2031",
"5  c #1C2031",
"6  c #1D2032",
"7  c #1C2132",
"8  c #1E2133",
"9  c #1B2035",
"0  c #1B2036",
"q  c #1A2036",
"w  c #1E2134",
"e  c #1F2234",
"r  c #1E2236",
"t  c #1D2134",
"y  c #192038",
"u  c #1C2239",
"i  c #1D233A",
"p  c #202235",
"a  c #202234",
"s  c #202236",
"d  c #202336",
"f  c #212337",
"g  c #212237",
"h  c #212336",
"j  c #222339",
"k  c #202338",
"l  c #222539",
"z  c #23253A",
"x  c #23263B",
"c  c #24253B",
"v  c #24263B",
"b  c #25273C",
"n  c #27263E",
"m  c #24253B",
"M  c #29253F",
"N  c #27293F",
"B  c #25283E",
"V  c #26283E",
"C  c #29283F",
"Z  c #341D43",
"A  c #3A1B46",
"S  c #3C1D4A",
"D  c #232741",
"F  c #2B2441",
"G  c #272940",
"H  c #272A42",
"J  c #272942",
"K  c #282940",
"L  c #282A41",
"P  c #2B2842",
"I  c #2A2B43",
"U  c #282A44",
"Y  c #2D2A45",
"T  c #2B2D46",
"R  c #2C2C45",
"E  c #2C2E47",
"W  c #2E2E47",
"Q  c #2A2B44",
"!  c #2E2D49",
"~  c #342147",
"^  c #342349",
"/  c #3F204E",
"(  c #302F4B",
")  c #302F49",
"_  c #312F4B",
"`  c #2F304B",
"'  c #31304B",
"]  c #32304B",
"[  c #32324D",
"{  c #33314E",
"}  c #352450",
"|  c #3E2352",
" . c #3D2954",
".. c #353351",
"X. c #353451",
"o. c #353452",
"O. c #393756",
"+. c #393656",
"@. c #393655",
"#. c #3B3758",
"$. c #3B3758",
"%. c #3B3858",
"&. c #3C3859",
"*. c #3E3A5C",
"=. c #3C395A",
"-. c #411D4D",
";. c #441F50",
":. c #4A1F55",
">. c #432254",
",. c #492056",
"<. c #462459",
"1. c #4D245D",
"2. c #442B5C",
"3. c #51225E",
"4. c #403B5F",
"5. c #4F2762",
"6. c #4E2B64",
"7. c #572464",
"8. c #5A2365",
"9. c #522966",
"0. c #5E256A",
"q. c #562B6A",
"w. c #5C2B6D",
"e. c #413C60",
"r. c #55326E",
"t. c #5E2B71",
"y. c #62256D",
"u. c #652670",
"i. c #682773",
"p. c #612D75",
"a. c #6A2976",
"s. c #662E7A",
"d. c #6B2C7B",
"f. c #712A7D",
"g. c #65317A",
"h. c #6C327F",
"j. c #613A7F",
"k. c #6D2F80",
"l. c #742D83",
"z. c #792D87",
"x. c #7B2D88",
"c. c #6E3082",
"v. c #743186",
"b. c #753289",
"n. c #7A328C",
"m. c #77398D",
"M. c #7F3492",
"N. c #7C3A92",
"B. c #7F3F99",
"V. c #6B418B",
"C. c #774598",
"Z. c #823494",
"A. c #803995",
"S. c #86369A",
"D. c #89369E",
"F. c #843A9A",
"G. c #883C9F",
"H. c #8C3CA4",
"J. c #8F3FA8",
"K. c #83419D",
"L. c #8643A3",
"P. c #8B43A6",
"I. c #8E43A9",
"U. c #8D48AC",
"Y. c #9143AC",
"T. c #9149AF",
"R. c #8F4DB1",
"E. c #9347B1",
"W. c #954BB4",
"Q. c #984CB6",
"!. c #974EB9",
"~. c #9A4EBA",
"^. c #9450B7",
"/. c #9751BA",
"(. c #9A52BD",
"). c #9D55C2",
"_. c #9F59C4",
"`. c #A156C5",
"'. c #A059C7",
"]. c #A457C9",
"[. c #A35BCB",
"{. c #A75FD1",
"}. c #A662CC",
"|. c #A967CE",
" X c #A961D3",
".X c #AB6AD3",
/* pixels */
"- - & - - - - e c W N $ $ & - % o X % # X . . . o O $ = = - - - = - - # X X X o @ = - - - - - - % % $ $ = % $ $ & - - - - ",
"& & & & & & 0 u c I b = $ $ % 7 o o % y O o o . o $ = 6 % # # % = a & % X X . # = 6 & 0 0 e % # % y = 6 = = $ = & & & & & ",
"d d d e d d d d l l l d $ O 3 7 O O 3 u a # o . o 3 d l 3 o X X 3 l l 3 o X X # a l e d l 6 $ O $ r l 7 d d d d d d e j j ",
"] W L W ) n 6 $ $ $ d N i 7 3 # X # I ` N 3 o O O 3 # $ $ # $ # O $ 8 $ X X O # $ c c = 3 # 6 N D N H b $ d Y ) _ [ ) Q N ",
"*.o.! o.O.P $ o o # d R E I $ o . 3 X.O.! 7 o # a O o o # 7 r 7 O o + # o O @ O O l N # . X c O.X.U R B # 6 O.e.*.*.=._ R ",
"Y K n K P d $ + O O O $ l l # . . $ l l 7 # # $ 8 3 O # O # # # o X o O # 3 a @ # 3 7 O . X $ n x 7 7 7 $ N *.%.Y Y P n l ",
"$ % @ @ $ $ $ @ @ o o o O # O .     X X X O @ # $ 3 6 # O o . X X X X o a a 6 = @ o .     X O # O o X O 7 R %.] ; @ $ $ $ ",
"$ % % % % $ $ $ $ @ o O o o o             o O o o O O o o       X . X o O O O O o X         o o # # # % 6 G [ Q & # % % % ",
"& - - - % y % $ # # # # o .                 X o X X X X           X X X . . . X X             X O # % % e x H i y % - % - ",
"- - - - % y % % % o o X o X                                                                   . X O X # 6 u u u y - % y - ",
"= 0 - % # # # $ $ # O o o . o                                                               X X X o O # $ 3 # O # 3 y y 0 ",
"d u e $ O X o X O $ = $ O . . .                                                           X . X O # 7 - O X o o X $ r r l ",
"[ L 3 d n $ o . X # $ = + X o .                                                           X . X # = 3 # o + c b u 3 $ $ 6 ",
"4.W # c #.P @ o X X # a # o . X                                                           X . o @ = O X o 6 @.O.U 7 o # $ ",
"P c @ = P j @ @ O O # O O   X .                                                           X X   O O O + o = C P l = o @ $ ",
"@ = $ $ $ $ $ $ $ $ O o o   X X                                                           X X   X o # $ # $ $ @ $ $ $ $ $ ",
"% % = - % % = % $ O o . . .                                                                   . . . X # # % % # $ $ % & - ",
"& & - & - 0 % % # O o O o X X                                                               X X o O O O # % = = $ = & & & ",
"= d e e e e 6 # O 7 6 3 # X . X                                                           X X X O 6 6 $ O # 6 l e e e u e ",
"n n n j d N Y @ # u I W l X . X                                                           X . X r W n 6 # 0 I ` Y Q n N n ",
"W R R l = ! O.c $ I { %.H o . X                                                           X . o I O.G $ 6 C O.*.*.o.T T R ",
"D D D u - D T = # 6 G ` l X . X                                                           X . X l R e o # u X.O.! U D D G ",
"& 0 & y % y % o X X O % # X . o                                                           X . X # - O X X $ G G u * * - = ",
"e 0 0 0 y # X X . . X o O . .                                                               X X X X X X X X $ = & & e u 6 ",
"e e c N c 6 # O o O O o . o                                                                   X X X + # # o X = c c d l c ",
"= e L [ O.@.] l l W C O . .                                                                   X X O K { R e # n @.L = c R ",
"@ e G ) O.%.O.I C 4.{ # . o .                                                                 X X # T o.W c ; n o.n @ c L ",
"$ @ = > d I ` b N 4.X.> o . . .                                                               . o # ; < > = @ ; d > @ ; = ",
"% # % # $ = l j c W N # o O o .                                                             o O # + + # $ % O # # % % $ % ",
"- = & - & O O = 6 # o X o @ o X                                                           X o @ o X X o $ # o O % & % % = ",
"= = 0 7 7 3 # @ O . . X o @ o X                                                           X o $ o o o o # O O % = e = = = ",
"c c l l l x r # o o . X # $ o o                                                           o o + o o # # o # d c c c c d c ",
"@._ W ) o.` D D u # o X # $ # X                                                             o o o @ l l O $ [ O.@.@.{ W L ",
"#.o.! _ $.o...` Q u $ O # = # X                                                               X o $ n n # 6 { O.O.&.O.] L ",
"c j > u D o.=.o.! R x # O O o                                                                   o o $ = $ # 6 6 = j c d = ",
"$ $ $ % - T o.U x x e # o .                                                                     . . o o @ # o X o o o $ % ",
"- % - % - y - % O o o o .                                                                     . . X X o + $ # $ + o X % - ",
"- - - - y # # : Z  .2.| w.                                                                  c.2. .| 2. .; o o # % # O % - ",
"- - % % y o # / s.L.U.F.P./.)./.H.Y.]. X X{.{._./.I.Y.[. X{.~.H.D.Y.`.).J.Q.[.Q.I.(. X.X|._./.R.H.F.U.C.^ o o # % % % - - ",
"& = O # - F ;.k.P.'.].Q.T.W.(.}.!.Q._.{.{.`.Q.(.(.~.~.'.{.{.].!.W.Y.Q.E.E.(.{.).E.E.(.}..X|._.^.E.!.'.(.V.6./ 1 ; + O % & ",
"a = $ $ a / 0.F.(.[.[.(.E.J.(.|.'.(.(._.[.~.I.E._.[.[.(._.[. X{.`.!.Y.J./.'.[.].(.Y.J.`. X.X(.I.T.(.[.]./.F.0.A = # @ > r ",
"O F q./ O + Z p.N.P.(.].).Q.W.Q.`.`.E.E.).`.(.).).'.(.Y.W.`.[. X'.).(.).).~.E.(.'.`.)._.).Q.T.Q.`.[.~.Y.N.w.Z @ @ >.q.F O ",
". ~ v.p.1 > 1 3.f.S.Q.[.[.Q.Y.Y.).).Y.Y.(._.{.)././.!.I.Y.(.'.[.).(.[.[.(.Y.I.!.{. X[.).W.I.Y.Q.[.[.Q.F.f.3.1 > ~ p.v.Z . ",
". 1 u.f.c.c.c.x.F.T.).{.(.I.T.Q.Y.Y.Q.!.(.).).E.I.!.(.!./.(.).).E.Y.[.'.Y.Y.Q.(._. X[.W.Y.Q.T.Y.~.{.).T.F.n.v.c.v.l.p., . ",
"o > S 8.g.n.Z.D.Y.(.[.[.(.Y.P.P.G.H.E.(._._.(.E.I.!.(.!.(.`./.W.Y.E._.`.W.T.Q.Q.!.'.'.G.A.P.I.J.(.[.[.).Y.S.Z.n.d.7.-.> o ",
"$ # @ $ < ,.a.Z.Y.`.}.'.(.Q.N.d.M.H.H.W.[.'.(./.(.(.!.I.W.[.~.I.E./.)._.[.~.J.D.H.^.W.f.y.i.n.!.(.).[.].J.Z.a.,.< @ # $ % ",
"0 % O O # , S 3.g.K.T.T.P.K.w.,.a.M.D.H.P.W.).!.W.(.T.n.D.~.E.H.G.L.W.).(.Y.n.D.Y.P.m.3.A -.w.K.Y.T.T.K.d.1.-., o o # % 0 ",
"l l l r 6 $ @ o , 3.f.S.n.y.~ , ,.a.Z.n.s.N.W.U.H.!.U.d.f.S.D.A.a.s.U.!.I.z.u.N.T.m.3., o 5 A 0.n.F.v.3., O O 3 a l 7 l u ",
"N C H l e c N $ o : 3.M.d.A > $ , -.a.x.z.p.r.b.D.A.N.n.z.f.p.,.Z -.N.I.x.7.A g.L.q., + # j F A d.M.5.: + $ N ] [ ! U G U ",
"R E E l = ! o.l # @ <.n.q.= $ # o : :.a.b.<.; r.Z.f.i.v.f.8.2 o o Z k.x.y.A @ 6.n.<.$ + = Q x = q.n.,.; = n %.4.=.o.T T R ",
"i u i 0 - i G $ < 9.d.f.;.o # - # # > Z S : % t.Z.f.3.>.Z , O o  .s.f.0.A @ @ >.a.d.9.< # u $ O ;.d.d.9.< e [ [ U D i i i ",
"y y 0 0 y y y o , p.d.3.2 + # & - - O X X % } s.n.y.-.@ o o o @ 5.k.8.S # o ; Z 3.d.p.1 O % # O Z 3.d.t.< # G G * * * & y ",
"e e e e 7 6 e 7 > < , ; > 3 > d l 6 6 O X | c.l.y.Z @ 3 3 3 $ = c , , @ = 6 a > > , , 6 6 6 6 > > @ , 1 d e l l e e e e > ",
"= e n L I W L c l 6 7 7 l b l a l l l 3 # | p.9.S @ # C C j c c l 7 7 a d c N c 6 # 3 7 l b x a 6 0 7 e l c d c R c e l n ",
"; > Q o.%.%.O.L N X.%.O.{ I j = N L = > e > ; @ @ O j @._ > j W X.%.%.{ b P &.%.O.` N > a L n = R O.=.O.) n = K O.P = n W ",
"@ = n Y _ @.@.L P %.4.{ W b $ > j j @ ; e $ X o o @ > W P $ = M W { %.{ c W 4.4.] R c $ = c j @ n [ _ ) L c @ c ! n @ d n ",
"@ @ $ $ = n Q n L %.o.> % ; @ @ ; @ % @ $ @ $ + $ @ = ; = $ $ ; @ = L W l W %.) > $ = $ $ % @ @ $ ; @ = = $ $ $ ; @ % @ % ",
"= = % % % u x u n [ W = # # % % % $ % = % $ $ % % @ $ $ # % % # = % u j d R o.n @ # $ % % % % % % $ $ @ $ $ $ # % $ % = $ ",
"- y = % - - & e c I n = % & 7 0 - - = & & = @ = = = $ & - y = = & & & & d n R j @ % & & & - & & & & % @ = % @ % & & & & & ",
"0 e e e e e e 6 l c c 6 e 0 e 6 u e e e e 6 a d = d > = e e e d u e u e d l c j d e u e e e e d e e 6 d e > d d = u e e d ",
"l r l l a l a l l a a l a l a l d d d d d d d j d d j a j a j a d d d d d j d j d d d d j d j d j d d d d d d j j d d j d "
};
