/* XPM */
static char *result[] = {
/* columns rows colors chars-per-pixel */
"61 61 171 2 ",
"   c #060D1D",
".  c #080F1E",
"X  c #0C131F",
"o  c #060A20",
"O  c #0E1520",
"+  c #111623",
"@  c #141B23",
"#  c #181F23",
"$  c #13162A",
"%  c #17192A",
"&  c #181A2B",
"*  c #171833",
"=  c #1C1E33",
"-  c #181837",
";  c #172021",
":  c #1C2325",
">  c #1E2822",
",  c #1E2228",
"<  c #1F2035",
"1  c #232C25",
"2  c #26272F",
"3  c #262C28",
"4  c #292F2A",
"5  c #273224",
"6  c #2C3727",
"7  c #2E3A26",
"8  c #2C332A",
"9  c #303C26",
"0  c #30372B",
"q  c #343B2C",
"w  c #383F2E",
"e  c #202136",
"r  c #2C2D31",
"t  c #26273E",
"y  c #26283E",
"u  c #2B2C39",
"i  c #303232",
"p  c #393A36",
"a  c #3A3C3E",
"s  c #33343B",
"d  c #344127",
"f  c #3B442D",
"g  c #3C482B",
"h  c #3E4531",
"j  c #424D2E",
"k  c #485B24",
"l  c #4A592C",
"z  c #414731",
"x  c #444B32",
"c  c #494F35",
"v  c #454739",
"b  c #47493A",
"n  c #484A3A",
"m  c #4B5234",
"M  c #4D5830",
"N  c #545E34",
"B  c #525639",
"V  c #575B3D",
"C  c #4F602C",
"Z  c #55652E",
"A  c #576A2D",
"S  c #5A6D2E",
"D  c #5D7426",
"F  c #5F722D",
"G  c #566332",
"H  c #5A6734",
"J  c #5D653A",
"K  c #5E6839",
"L  c #5B6933",
"P  c #6B7E2F",
"I  c #646B3D",
"U  c #686F3E",
"Y  c #627333",
"T  c #697B33",
"R  c #6C743F",
"E  c #6E7C3C",
"W  c #262746",
"Q  c #272941",
"!  c #2A2C44",
"~  c #2D2F49",
"^  c #2F304A",
"/  c #30324D",
"(  c #363949",
")  c #3B3E4B",
"_  c #2E2E51",
"`  c #343452",
"'  c #3A3757",
"]  c #3A3758",
"[  c #3E3B5D",
"{  c #3B3B53",
"}  c #403C5F",
"|  c #433D62",
" . c #3E4349",
".. c #44474B",
"X. c #46494C",
"o. c #484D48",
"O. c #565946",
"+. c #51544E",
"@. c #444454",
"#. c #5F6249",
"$. c #666A4A",
"%. c #6C7142",
"&. c #757D40",
"*. c #676B52",
"=. c #737658",
"-. c #6F8333",
";. c #738635",
":. c #728933",
">. c #788837",
",. c #728338",
"<. c #768838",
"1. c #7D9534",
"2. c #778141",
"3. c #7C8344",
"4. c #829B36",
"5. c #82953C",
"6. c #879F38",
"7. c #8B9E3E",
"8. c #8DA33C",
"9. c #91A63E",
"0. c #93A93E",
"q. c #808747",
"w. c #828D43",
"e. c #82874A",
"r. c #868B4A",
"t. c #8B9546",
"y. c #8D9C42",
"u. c #8C934B",
"i. c #8F9848",
"p. c #86934B",
"a. c #91964F",
"s. c #939B4C",
"d. c #838950",
"f. c #8E9456",
"g. c #939957",
"h. c #999E54",
"j. c #979C58",
"k. c #93A443",
"l. c #95A941",
"z. c #9AAD43",
"x. c #96A248",
"c. c #9AA44C",
"v. c #9CA84B",
"b. c #9EB045",
"n. c #9CA253",
"m. c #A2AE4D",
"M. c #A1B247",
"N. c #A5B44A",
"B. c #A8B64C",
"V. c #ACBA4E",
"C. c #B1BF4F",
"Z. c #A2AA51",
"A. c #A6B351",
"S. c #ABB353",
"D. c #AEBA50",
"F. c #B3BD53",
"G. c #B5BC58",
"H. c #B2C14F",
"J. c #B6C154",
"K. c #B9C456",
"L. c #BDC856",
"P. c #BBC558",
"I. c #BFC958",
"U. c #C3CB5B",
"Y. c #C8CF5F",
"T. c #CBD35E",
"R. c #CED85E",
"E. c #CDD461",
"W. c #D1D763",
"Q. c #D5DB64",
"!. c None",
/* pixels */
"!.!.!.!.!.!.!.!.!.!.!.!.!.!.!.!.!.!.!.!.!.!.!.!.!.!.!.!.!.!.!.!.!.!.!.!.!.!.!.!.!.!.!.!.!.!.!.!.!.!.!.!.!.!.!.!.!.!.!.!.!.",
"!.!.!.!.!.!.!.!.!.!.!.!.!.!.!.!.!.!.!.!.!.!.!.!.!.!.!.!.!.!.!.!.!.!.!.!.!.!.!.!.!.!.!.!.!.!.!.!.!.!.!.!.!.!.!.!.!.!.!.!.!.",
"!.!.!.!.!.!.!.!.!.!.!.!.!.!.!.!.!.!.!.!.!.!.!.!.O O O O O O O O O O O O O O O !.!.!.!.!.!.!.!.!.!.!.!.!.!.!.!.!.!.!.!.!.!.",
"!.!.!.!.!.!.!.!.!.!.!.!.!.!.!.!.!.!.!.!.!.!.!.X O O + + + + + + + + + + + O O X !.!.!.!.!.!.!.!.!.!.!.!.!.!.!.!.!.!.!.!.!.",
"!.!.!.!.!.!.!.!.!.!.!.!.!.!.!.!.!.!.!.!.O O O O O @ $ & & & & & & & & & $ @ O X O O X !.!.!.!.!.!.!.!.!.!.!.!.!.!.!.!.!.!.",
"!.!.!.!.!.!.!.!.!.!.!.!.!.!.!.!.!.!.!.O O O + O + & = e < < < = < < = = < & + + + + X X !.!.!.!.!.!.!.!.!.!.!.!.!.!.!.!.!.",
"!.!.!.!.!.!.!.!.!.!.!.!.!.!.!.!.O X O O O O & & & e ! ! ! ! ! ! ! ! ! ! ! < & & & @ O X O O O !.!.!.!.!.!.!.!.!.!.!.!.!.!.",
"!.!.!.!.!.!.!.!.!.!.!.!.!.!.!.O O + + @ & < < < e t ~ / / ` ` / ` ` ` / ! t < e < & & $ @ O O O !.!.!.!.!.!.!.!.!.!.!.!.!.",
"!.!.!.!.!.!.!.!.!.!.!.!.!.!.O O O O & < y ! ! ! ! ! ~ ` [ } [ [ [ | [ ` ^ ! ! ! ! ! Q < & O O O O !.!.!.!.!.!.!.!.!.!.!.!.",
"!.!.!.!.!.!.!.!.!.!.!.!.!.O O O + & < Q ~ / ` ` ` ` ` ' | | | | | | | ` ` ` ` ` ` ^ ~ y < & + O O O !.!.!.!.!.!.!.!.!.!.!.",
"!.!.!.!.!.!.!.!.!.!.!.!.O O O O & < Q ! ~ ` [ [ } } [ } !.!.!.!.!.!.!.[ [ [ } | [ ` ^ ! Q < & O O O O !.!.!.!.!.!.!.!.!.!.",
"!.!.!.!.!.!.!.!.!.!.!.O O O + & < t ~ ^ ` ' | | | | | !.!.!.!.!.!.!.!.!.| | | | [ ' ` / ! y < & + O O O !.!.!.!.!.!.!.!.!.",
"!.!.!.!.!.!.!.!.!.!.O O O + & < Q ~ ^ ` [ [ !.!.!.!.!.!.!.!.!.!.!.!.!.!.!.!.!.!.!.| [ ` ^ ~ Q < & + X O X !.!.!.!.!.!.!.!.",
"!.!.!.!.!.!.!.!.!.O O O + & < y ~ ^ ` ' | !.!.!.!.!.!.!.!.!.!.!.!.!.!.!.!.!.!.!.!.!.| ` ` ^ ! Q < & + O X + !.!.!.!.!.!.!.",
"!.!.!.!.!.!.!.!.O O O + & < Q ~ ~ ` [ [ !.!.!.!.!.!.!.!.!.!.!.!.!.!.!.!.!.!.!.!.!.!.!.} [ ` ^ ^ y < & O O X O !.!.!.!.!.!.",
"!.!.!.!.!.!.!.!.O O + & < t ~ ^ ` ' | !.!.!.!.!.!.!.!.!.!.!.!.!.!.!.!.!.!.!.!.!.!.!.!.!.} ` ` ^ ~ y < & + + O !.!.!.!.!.!.",
"!.!.!.!.!.!.!.!.O O & < ! ! ~ ` [ } !.!.!.!.!.!.!.!.!.!.!.!.!.!.!.!.!.!.!.!.!.!.!.!.!.!.!.| [ ` ^ ^ Q < % O O !.!.!.!.!.!.",
"!.!.!.!.!.!.!.O O @ < Q ! / ` ' [ !.!.!.!.!.!.!.!.!.!.!.!.!.!.!.!.!.!.!.!.!.!.!.!.!.!.!.!.!.[ ' ` ^ ! Q = @ O O !.!.!.!.!.",
"!.!.!.!.!.!.O O O & Q ! ^ ` [ } !.!.!.!.!.!.!.!.!.!.!.!.!.!.!.!.!.!.!.!.!.!.!.!.!.!.!.!.!.!.!.| [ ` ^ ~ Q & O O O !.!.!.!.",
"!.!.!.!.!.!.O O O < ! / ` ' } !.!.!.!.!.!.!.!.!.!.!.!.!.!.!.!.!.!.!.!.!.!.!.!.!.!.!.!.!.!.!.!.!.} ` ` ^ ! = + O O !.!.!.!.",
"!.!.!.!.!.!.O + % < ! ` [ | !.!.!.!.!.!.!.!.!.!.!.!.!.!.!.!.!.!.!.!.!.!.!.!.!.!.!.!.!.!.!.!.!.!.!.| [ ` ! = & + O !.!.!.!.",
"!.!.!.!.!.O O + % < ! ` } | !.!.!.!.!.!.!.!.!.!.!.!.!.!.!.!.!.!.!.!.!.!.!.!.!.!.!.!.!.!.!.!.!.!.!.| [ ` ! < & O X X !.!.!.",
"!.!.!.!.O O O + % < ! ` [ | !.!.!.!.!.!.!.!.!.!.!.!.!.!.!.!.!.!.!.!.!.!.!.!.!.!.!.!.!.!.!.!.!.!.!.| [ ` ! < % @ O O @ !.!.",
"!.!.!.!.O O @ & < Q ~ ` } | !.!.!.!.!.!.!.!.!.!.!.!.!.!.!.!.!.!.!.!.!.!.!.!.!.!.!.!.!.!.!.!.!.!.!.| [ ` ! Q < & @ O O !.!.",
"!.!.!.!.O + & = ! ~ ~ ` } | !.!.!.!.!.!.!.!.!.!.!.!.!.!.!.!.!.!.!.!.!.!.!.!.!.!.!.!.!.!.!.!.!.!.!.| [ ` ^ ^ Q < % + X !.!.",
"!.!.!.!.O + & e ! / ` ' [ !.!.!.!.!.!.!.!.!.!.!.!.!.!.!.!.!.!.!.!.!.!.!.!.!.!.!.!.!.!.!.!.!.!.!.!.!.[ [ ` ^ ! < & + X !.!.",
"!.!.!.!.O + & < ! ` [ | !.!.!.!.!.!.!.!.!.!.!.!.!.!.!.!.!.!.!.!.!.!.!.!.!.!.!.!.!.!.!.!.!.!.!.!.!.!.!.| [ ` ! < & + + !.!.",
"!.!.!.!.O + & < ! ` [ | !.!.!.!.!.!.!.!.!.!.!.!.!.!.!.!.!.!.!.!.!.!.!.!.!.!.!.!.!.!.!.!.!.!.!.!.!.!.!.| [ ` ! < & + X !.!.",
"!.!.!.!.O + & = ! ` } | !.!.!.!.!.!.!.!.!.!.!.!.!.!.!.!.!.!.!.!.!.!.!.!.!.!.!.!.!.!.!.!.!.!.!.!.!.!.!.| [ ` ! < % + X !.!.",
"!.!.!.!.O + & e ! ` [ | !.!.!.!.!.!.!.!.!.!.!.!.!.!.!.!.!.!.!.!.!.!.!.!.!.!.!.!.!.!.!.!.!.!.!.!.!.!.!.| [ ` Q < & + X !.!.",
"!.!.!.!.X + & < ! ` } | !.!.!.!.!.!.!.!.!.!.!.!.!.!.!.!.!.!.!.!.!.!.!.!.!.!.!.!.!.!.!.!.!.!.!.!.!.!.!.| [ ` ! < & + + !.!.",
"!.!.!.!.+ + % < ! ` [ | !.!.!.!.!.!.!.!.!.!.!.!.!.!.!.!.!.!.!.!.!.!.!.!.!.!.!.!.!.!.!.!.!.!.!.!.!.!.!.| [ ` ! < & + X !.!.",
"!.!.!.!.X @ & < ! / } } !.!.!.!.!.!.!.!.!.!.!.!.!.!.!.!.!.!.!.!.!.!.!.!.!.!.!.!.!.!.!.!.!.!.!.!.!.!.!.| [ ` ! e & + X !.!.",
"!.!.!.!.X + & e ~ / ` ] } !.!.!.!.!.!.!.!.!.!.!.!.!.!.!.!.!.!.!.!.!.!.!.!.!.!.!.!.!.!.!.!.!.!.!.!.!.} ' ` / ! e & + O !.!.",
"!.!.!.!.+ + & < ! ~ ~ ` } | !.!.!.!.!.!.!.!.!.!.!.!.!.!.!.!.!.!.!.!.!.!.!.!.!.!.!.!.!.!.!.!.!.!.!.| } ` ~ ~ ! = & + O !.!.",
"!.!.!.!.X O + & < t ! ` } | !.!.!.!.!.!.!.!.!.!.!.!.!.!.!.!.!.!.!.!.!.!.!.!.!.!.!.!.!.!.!.!.!.!.!.| [ ` ! y < & + O O !.!.",
"!.!.!.!.O O O @ & e ! ` } | !.!.!.!.!.!.!.!.!.!.!.!.!.!.!.!.!.!.!.!.!.!.!.!.!.!.!.!.!.!.!.!.!.!.!.| } ` ! e & + O O X !.!.",
"!.!.!.!.O O X + & e ! ` } | !.!.!.!.!.!.!.!.!.!.!.!.!.!.!.!.!.!.!.!.!.!.!.!.!.!.!.!.!.!.!.!.!.!.!.| } ` ! e $ + X O + !.!.",
"!.!.!.!.O O O + & = ! ` [ | !.!.!.!.!.!.!.!.!.!.!.!.!.!.!.!.!.!.!.!.!.!.!.!.!.!.!.!.!.!.!.!.!.!.!.| [ ` ! < & + O + X !.!.",
"!.!.!.!.O O X + + = ! / ` ' } !.!.!.!.!.!.!.!.!.!.!.!.!.!.!.!.!.!.!.!.!.!.!.!.!.!.!.!.!.!.!.!.!.} ' / / ! = + O O X X !.!.",
"!.!.!.!.O O O O X & Q ~ ~ ` [ } !.!.!.!.!.!.!.!.!.!.!.!.!.!.!.!.!.!.!.!.!.!.!.!.!.!.!.!.!.!.!.| [ / ~ ~ y & O O O O O !.!.",
"!.!.!.!.!.O O O O @ < y ! ^ ` [ } !.!.!.!.!.!.!.!.!.!.!.!.!.!.!.!.!.!.!.!.!.!.!.!.!.!.!.!.!.[ ' ` / ~ t < @ O O O O !.!.!.",
"!.!.!.!.!.!.O O O + & < ! ! ~ ` [ | !.!.!.!.!.!.!.!.!.!.!.!.!.!.!.!.!.!.!.!.!.!.!.!.!.!.!.} [ ` ~ ~ ! = % + O O O !.!.!.!.",
"!.!.!.!.!.!.O O O + + & < t ~ ^ ` ] | !.!.!.!.!.!.!.!.!.!.!.!.!.!.!.!.!.!.!.!.!.!.!.!.!.} ' ` / ~ t = & + O O O O !.!.!.!.",
"!.!.!.!.!.!.O O O O O O & < ! ~ ~ ` [ } !.!.!.!.!.!.!.!.!.!.!.!.!.!.!.!.!.!.!.!.!.!.!.[ [ ` ^ ! ! = & + O O O O O !.!.!.!.",
"!.!.!.!.!.!.!.O O O O O O % < t ~ ^ ` ] | !.!.!.!.!.!.!.!.!.!.!.!.!.!.!.!.!.!.!.!.!.| [ ` ^ ~ y e # + O O O O O !.!.!.!.!.",
"!.!.!.!.!.!.!.!.O O O O O @ & < ! ~ ~ ` [ } !.!.!.!.!.!.!.!.!.!.!.!.!.!.!.!.!.!.!.} [ ` ^ ! Q < % + O O X + O !.!.!.!.!.!.",
"!.!.!.!.!.!.!.!.O O O O   o O & = Q ~ ~ _ ' | | | | | !.!.!.!.!.!.!.!.!.| | | | | ' ` / ! t * $ + + O O O X O !.!.!.!.!.!.",
"!.!.!.!.!.!.!.!.X O O # 3 1 + + & < ! ( ..@.[ [ [ [ [ [ !.!.!.!.!.!.!.[ [ } [ } [ ` ~ ~ ! s i # + O O O O O O !.!.!.!.!.!.",
"!.!.!.!.!.!.!.!.X X . f 3.%., O + $ e O.f.=.' _ _ ` ` ] | | | | | | | ' ` ` ` ` ` ~ W - u %.e.z O . O . . . + !.!.!.!.!.!.",
"!.!.!.!.!.!.!.!.O # 4 J s.&.3 o X O & V n.d.o. .X.{ ~ ` [ } [ [ } } [ ` ~ ! ! ! ! ) X.p b d.s.c O . @ 3 4 @ X !.!.!.!.!.!.",
"!.!.!.!.!.!.O X X p 3.3.J q # O O O @ 4 x K E p.g.*.^ ~ ` ` ` ` ` ` ` / ~ Q < * u $.h.h.u.%.n 1 O . 3 R &.q . X O !.!.!.!.",
"!.!.!.!.!.!.O X O m S.s.4   X O O O O . O d T z.J.f.+.( ! Q ! ! ! ! ! ! Q = & 2 n a.U.R.m.M X . X   8 i.S.I 1 + O !.!.!.!.",
"!.!.!.!.O O O X o x Z.u.3     X O O O X X ; 7 Y l.N.n.#.e * * = < < < = * $ & I h.G.U.C.7.z   . X   1 E M.x.R 0 . O O !.!.",
"!.!.!.!.O O X + 8 I c.>.3 # 8 4 + X O O X @ 5 l 5.B.F.r.v p p r & $ & i p & 1 &.K.L.B.z.5.N 0 @ O 1 j ;.0.l.3.q X X X !.!.",
"!.!.O O O X X q 3.v.l.Y 3 f r.R : . O X X 7 S :.4.0.z.v.h.n.a.B $ o # I a.c : H M.0.0.M.B.c.E 0 1 I c.B.s.I q : X . X X + ",
"!.!.O O X # 8 I G.L.0.A > z u.3.g , + @ 5 H 8.z.0.8.9.N.L.T.U.2.6 X ; I s.I 9 Y 9.9.0.B.F.F.m.N x s.Y.U.k.M 1 X + 4 8 @ . ",
"O O O   . 0 3.S.G.C.9.A > # w I 3.G ; 5 S 7.F.J.V.B.N.M.b.V.J.k.Y 9 O 1 z N T 7.B.V.V.F.F.M.9.t.a.S.J.M.6.>.C 1 1 R R 8   ",
"X ; 1 1 > N S.T.C.N.z.,.g 1 0 U Z.u.m L k.C.U.P.D.F.K.N.l.N.J.V.k.Y f 0 f T 0.N.V.B.V.F.F.M.l.M.C.F.C.z.0.0.5.j j 5.y.N w ",
"X 1 Z F k T F.U.z.M.C.m.>.,.w.v.F.D.Z.A.J.U.P.V.l.V.U.K.V.J.Y.U.K.m.i.a.Z.m.B.M.k.9.l.B.F.D.B.z.z.B.F.V.V.K.C.5.P P >.s.c.",
"X 6 -.1.D :.F.K.0.z.U.K.0.z.H.K.J.U.T.W.E.U.F.z.8.N.Y.U.J.U.T.E.T.U.K.Y.R.U.F.z.6.4.8.M.F.K.F.0.9.M.F.G.U.U.U.M.>.D P C.Q."
};
