/* XPM */
static char *d734facbaa1b4662f506532135b64a1eAGLhaL7VLXthzQdD[] = {
/* columns rows colors chars-per-pixel */
"61 61 174 2 ",
"   c None",
".  c #0C151E",
"X  c #0C1621",
"o  c #141725",
"O  c #151926",
"+  c #1E172D",
"@  c #161A2C",
"#  c #1A1A2E",
"$  c #171D33",
"%  c #1A1E33",
"&  c #271734",
"*  c #211C33",
"=  c #291B36",
"-  c #251D3A",
";  c #2B1B3A",
":  c #1A202E",
">  c #1C2035",
",  c #1D223A",
"<  c #212236",
"1  c #24253B",
"2  c #2B223E",
"3  c #27283E",
"4  c #28293F",
"5  c #2F1F43",
"6  c #341E44",
"7  c #391B45",
"8  c #3D1E4A",
"9  c #242641",
"0  c #2C2340",
"q  c #262942",
"w  c #2B2B44",
"e  c #2E2E49",
"r  c #352145",
"t  c #39214C",
"y  c #302E4A",
"u  c #2F304C",
"i  c #32314D",
"p  c #3C2554",
"a  c #353452",
"s  c #393655",
"d  c #3B3758",
"f  c #3D395B",
"g  c #411D4C",
"h  c #441F51",
"j  c #4A1F55",
"k  c #4C1F58",
"l  c #442354",
"z  c #482357",
"x  c #452956",
"c  c #452458",
"v  c #4C245C",
"b  c #432D59",
"n  c #48295D",
"m  c #52215D",
"M  c #413C5F",
"N  c #4D2A61",
"B  c #542361",
"V  c #592465",
"C  c #5D2469",
"Z  c #532A69",
"A  c #58296B",
"S  c #413C60",
"D  c #5C2D73",
"F  c #63256D",
"G  c #662671",
"H  c #662A76",
"J  c #6B2877",
"K  c #6B2E7D",
"L  c #712C7E",
"P  c #65347C",
"I  c #69337E",
"U  c #6D2E80",
"Y  c #752D83",
"T  c #792D87",
"R  c #7A2F89",
"E  c #6E3A89",
"W  c #733186",
"Q  c #763189",
"!  c #7B318B",
"~  c #7D3691",
"^  c #7D3993",
"/  c #823394",
"(  c #823997",
")  c #86369A",
"_  c #88379D",
"`  c #833D9B",
"'  c #89399E",
"]  c #8D3DA5",
"[  c #8F3FA8",
"{  c #903CA7",
"}  c #83409C",
"|  c #8743A4",
" . c #8B43A6",
".. c #8E42A9",
"X. c #8D49AB",
"o. c #9244AD",
"O. c #9446B1",
"+. c #954AB4",
"@. c #984CB7",
"#. c #974FB9",
"$. c #994EBA",
"%. c #9650B9",
"&. c #9952BD",
"*. c #9D54C1",
"=. c #9C54C0",
"-. c #9D55C2",
";. c #9E55C3",
":. c #9D57C3",
">. c #9D56C3",
",. c #9D57C4",
"<. c #9F56C4",
"1. c #9F57C5",
"2. c #9D55C1",
"3. c #9E58C5",
"4. c #9F59C6",
"5. c #9F58C6",
"6. c #A055C4",
"7. c #A156C5",
"8. c #A057C5",
"9. c #A156C6",
"0. c #A057C6",
"q. c #A157C7",
"w. c #A056C6",
"e. c #A158C4",
"r. c #A058C7",
"t. c #A159C7",
"y. c #A258C7",
"u. c #A159C6",
"i. c #A159C8",
"p. c #A059C8",
"a. c #A258C8",
"s. c #A259C8",
"d. c #A05AC8",
"f. c #A15AC9",
"g. c #A15BC9",
"h. c #A35ACA",
"j. c #A35BCA",
"k. c #A45BCB",
"l. c #A45ACB",
"z. c #A25CCB",
"x. c #A35CCB",
"c. c #A35CCC",
"v. c #A35DCC",
"b. c #A45CCC",
"n. c #A55CCD",
"m. c #A55DCE",
"M. c #A65ECF",
"N. c #A35BCB",
"B. c #A65ED0",
"V. c #A75ED0",
"C. c #A65FD0",
"Z. c #A75FD1",
"A. c #A75FD0",
"S. c #A75FD0",
"D. c #A85FD1",
"F. c #A85FD1",
"G. c #A761CE",
"H. c #A761CE",
"J. c #A760D0",
"K. c #A760D1",
"L. c #A760D1",
"P. c #A860D2",
"I. c #A861D3",
"U. c #A961D3",
"Y. c #A860D3",
"T. c #A962D4",
"R. c #A861D3",
"E. c #AC68D6",
"W. c #AD6BD6",
"Q. c #AE6ED6",
"!. c #AD6CD6",
"~. c #AE6DD8",
"^. c #AF72D6",
"/. c #AF72D6",
/* pixels */
"          &.o.O.P.G.o._ O.s.] 7.$.o.J.Q.O.O.T.J.P.s.O.] b.T.$._ ] l.o.@.t.] t.E./.Q.P.o.$.7.] l.O._ o.Z.Z.O...:.          ",
"      7.] %.;.;.z.H.7.$.+.o.+.b.7.O.O.G.;.$.z.Z.+.+.;.<.4.Z.n.&.@.o.O.;.b.+.o.6.E.H.O.o.7.b.+.o.O.$.a.J.s.<.=.#.] 7.      ",
"    $.3.$.&.t.&.O.u.U.b.&.@.:.$.;.<.+.s.l.&.+.4.$.&.3.3.O.;.Z.Z.&.@.&.&.&.s.$.;.z.7.@.t.;.$.:.$.&.v.J.s.O.=.4.&.#.<.$.    ",
"  ] O.3.b.&.&.+.o.&.b.&.;.b.#.[ #.J.Z.&.;.$...&.b.;.#.&...#.4.7.&.b.6.o.o.b.T.7.+.&.Z.G.#.o.+.b.;.&.v.&...+.&.&.v.,.O.]   ",
"  &.&.:.&. .+.&.&.&.&.o.O.s...O.&.<.z.] ' ..&.;.:.o...&.&.&.:.+...l.O.o.&.&.H.+.) ] z.:.&.+.{ l.O.o.&.;.&.&.+.[ &.=.&.#.  ",
"P.O.+.v.&.&.&.+.o.j.O.O.&.e.e.o.] o.&.Y R ] o.n.:.&.&.%.[ <.$...&.&.s.$.] ] &.( F U &.o.] o.l.t.&.O.o.l.o.+.=.%.:.v.#.O.D.",
"P.o.o.3.&.o.$. .T o.{ / } &.O./ ( ..W 6 V ~ _ ~ %.+.O.%.Y ] o._ ~ %.&.' Q o.( x & 7 W ..( ! +.&.} ( ] o.Q  .#.O.&.3.O.o.D.",
"P.@.+.&.O.o. .P v ) I l A o./ j I ^ 8 O = V R L E ^ ] ^ Y R K v l | ` C m X.m + X O 7 } I v ! o.Z h K ) k P  ...O.&.O.$.T.",
"s.t.;.&.[ +.~ 8 + K 5 @ l / m + v I = + o = C I % N / F K C ; o 2 T G ; ; ! r + @ # 2 L v + m / c # 0 K + 8 ~ O.[ $.<.4.a.",
"] 6.P.z.&.[ ] A o * $ Z / m + o 8 J W ; @ @ o O $ D / m + o o 6 ! G ; O & F ! l O = W J 8 O + m R Z $ * o A ] [ &.l.Y.<.] ",
"t.b.b.;.=.<.O.Y g O % 2 2 = > < * ; r < < > @ o D Y m * # : : 2 2 ; * > < ; 2 2 < < r ; * > : = 6 2 # O g Y O.<.=.,.v.Z.4.",
"T.v.%.O.=.$.~ Y H O < w e w 1 w i w 1 % 3 1 # < x l = @ i 1 < w y w 1 4 i w 2 < 1 1 # 4 i i w : 1 w 1 o H Y ( $.&.O.#.v.T.",
";.<.+.O.&...~ Q K ; , w d s 1 s M i 4 # < 1 % < : O @ * i < < w a f w i M s w > * 1 # y s i 1 # w i % ; U Q ~ ..&...#.<.=.",
"] ;.s.&.%.:.=.` F F ; @ % w 1 a e # # # # # @ # # # # # # # # # % q 1 w s # @ @ # # # # # # # # @ O ; F G ' =.&.&.=.4.=.] ",
"&.&.:.#.] %.O.' ) / G 6 $ > , u 4 @ % % % $ $ % # : % @ $ % % % % > > 4 w # $ > > $ > > # # > @ % 6 G ( ) _ O.#.] #.:.=.#.",
"b.O.#.s.#.&.&.E 6 p W N > , < < < > > > > > > > < < > > > > > > > > < 1 1 < > > > > > > > < > > : N Q p 0 E ;.&.#.4.@.O.B.",
"T.$.;.4.:.s...I p @ l b w * 3 < 1 4 w y i i y w 4 1 4 i i i w w y < 1 1 % 4 w w i i i w 4 1 1 e y b l % p U ..a.:.4.=.;.Z.",
"Y.Z.:.#.:.7.^ Y U o . 3 y @ 3 * < w w a s s a w i 4 w M s s y e a % 1 1 # w w y s s a e u e 1 f f 1 . o K Y ^ 6.=.@.=.Z.F.",
"n.<.O...#.] _ Y j @ O % # # % # # @ @ # # # % % a w w f < @ # # % + # # # # # % # # + # w s 1 f q @ O o j Y _ ] #.[ O.4.n.",
"[ #.<.;.] ' Y j o $ $ % % # # # # % % @ # # @ $ , > w e % $ % % $ # # @ # # % @ # # # % , < 1 u 1 $ $ $ @ j Y _ ] ;.<.#.[ ",
"e.z.z.&._ L h + o O $ $ % % $ @ % % $ @ % % $ $ > > , , $ $ $ $ $ $ % $ @ $ % @ # % $ $ $ % > , $ $ $ $ X 7 L ] ] 4.l.+._ ",
"~.t.&.;.O.^ z + + c - % % % % % % % > > % % % > > > > % , % > > > > > % % > > % % % > % > > > > $ , $ $ & V R ] [ @.=.#.+.",
"t.O.$.P.Z.&.^ v t ! 6 > 4 < 1 3 4 3 * < 3 < w 4 1 < 1 4 1 9 1 1 4 < < 3 4 4 < 1 1 1 4 w 3 , 1 4 3 < % o V R ] ..=...+.4.T.",
"] +.s.b.&. .O...Q C = e y % w s M s 1 w w a f f u e a d e d w 1 s * 1 a f M 4 4 w i f f a w u d i < o # U K ~ l.=.=.4.Z.Z.",
"t.b.&.o.&.] R B ; ; % % * # % < i s 1 % % * < < > % % < * 1 * % < @ % * w M 4 % % * 1 1 * % % , > x H : % P %.3.:.v.#.@.Z.",
"+.7.&.o.o.$.' C ; o @ % % % $ @ 1 w < % $ @ % @ $ % $ $ @ @ % @ $ $ % @ % w 3 % % % O @ % $ % @ O l W A Z ^ #.%.o.;.$.+.4.",
"O.O.&.;.O.3.&.' G ; % > % % % > $ > < > % % % % % > > > % > % % > % > > $ $ % % % % # % % > > > : 2 m / ~ ' +.&...#.<.:.+.",
"l.o.+.D.s.:.%.| Q F ; # < 3 , 1 3 1 1 < < 3 4 4 < > < 4 3 < 3 < < 3 < < 3 3 3 < < 1 4 q < > 1 4 3 : + m F } +.$.&.&.3.;.[ ",
"] +.:.%.o.$.^ h ; ! r o 3 s > 4 a d q % < a f d < : w f f i e 3 % s 3 < i d i > , e f f w # 1 d S a 3 # Y Y Y ] %...O.3.n.",
"_ &.J.s.+..._ v o r < $ % 3 @ % 1 9 , $ > , 3 9 w 1 4 i q , , > > 1 % # , 9 , % % , 3 9 q 4 < i q 1 % o A T  .;.:.+.;.Z.F.",
"$.l.J.4.;.$.o.K ; o $ % % % % # # > > > > : # > 4 < 1 1 > > > > < > > # % % > > > % % % 1 < > 4 , % # o ; K o.$.;.s.D.m.$.",
"P.Z.;.+.&.<.] R C O > w w w 1 4 w w 4 > 1 1 1 w w q > 1 4 1 , 9 w 4 1 1 w w 1 1 < 1 < 4 w q 3 > 4 4 2 r o v ' { +.a.D.$._ ",
"b.<.O...%.[ Y Y W % 3 a f d 1 s S s w * 3 1 * d M a 3 % s 1 < y M M w w S d y < - 4 * i M s w # i w 6 Q 2 j ^ %...&.&.O.] ",
"[ 6.<.&.:.&.#.^ F m % @ 3 e < s y % % # % # % % * % # # * @ % % * u 1 y d < % % # # @ % * < % @ % # ; G T | %.;.s.M.@.O.l.",
"O.:.3.#...&.+.] R / m ; % , < i w @ @ % % $ $ % @ @ % @ $ $ $ % % , 1 w y @ @ $ % $ $ $ @ # % @ @ % # ; G ) &.s.+.:.&.O.O.",
"4.#.$.;...&.#.E Z D Y c $ > > 4 < % > > % % % % % > % * % > % % > > > < 4 % % > > > % > % % > * > > % o ; F ) $.o.o.&.:.+.",
"J.@.$.l.=.,.#.U * % D N < < < < < 1 1 4 4 w 4 3 1 1 1 4 4 4 4 3 4 > < 1 < 1 1 4 4 w 4 3 1 1 1 3 w 1 * * = N Q ] &.o.&.b.s.",
"Z.Z.4.=.:.l.^ Y U O o w a % w < 1 w e f f f s e y 1 w M M f i i s < 3 1 % w w s f f f i w w 1 d S w ; F Q ..O.] &.b.s.+.] ",
"Z.v.+...&..._ R V o o % < # % # % * * < < < * > s w w M 1 < < % < # % # # > % < < - < > i a 1 M w # 6 Q t m ^ &.b.P.$.o.7.",
"+.$.&.$...] R V = @ % % @ # # # @ @ % @ + @ @ $ w < w i % @ % $ % @ + # # + @ # # # # @ < w 1 i 3 @ - z % # v ^ O.t.;.e.Q.",
"] O.B.a._ _ L 7 X $ $ > $ $ $ % @ % $ @ % % $ $ > > 1 , > $ $ $ $ $ # @ @ $ $ # # @ $ $ $ $ , 9 > $ $ O # . = F ) #.v.E./.",
"] #.,.2.{ ] Y h # $ $ > $ > $ % % % % % % $ > $ > > > > $ > > % > > > # % $ > % % % > > > > > > > > $ - # O 7 I ] $.s.H.~.",
"l.,.O.[ @.] ] Y k o % < < < < < < < < < < < < 1 , > , 1 , , < 1 > , 1 1 < < > < < < < < > 1 , 1 1 @ r W ; 7 W &.s.Z.+.O.Z.",
"Y.B.2.@.=.;.~ Y U o X 0 y % w a f i < w w y d d u w u a u a w 1 a > 1 i d s 3 4 w w d d i w w a i < ; J U } ..o.,.J.;.O.o.",
"Z.=.=.4.=.4.X.P t $ l b w # 1 w d d < 1 < 3 e e 4 < w w 3 w - * w # * w a S q < 1 4 w e w 1 4 w 0 % & t c U ( ] &.#.;.<.$.",
"B.O.@.4.#.&.=.E 0 p Q N # @ % @ q i < % # # # @ @ @ % @ # @ @ @ @ % @ @ % a 1 % # @ # @ # @ % @ O @ # O # k ! O.+...$.l.7.",
"&.=.,.#.] &.o._ ) / G 6 $ $ $ $ $ , < $ $ $ % % > % $ % % % > > $ $ % $ $ > < > $ $ % % $ > $ $ % % $ + B ! +.s.[ #.:.+.] ",
"] ;.4.&.#.=.=.` G G ; @ % * < < < < < < < < < > , < < > > , > > 1 < < < < < < < > - < , < > < < < # = B ! O.&.<.l.Z.+.O.l.",
"=.;.#.o.=...~ Q K ; < % 1 i < 1 i a 4 < 1 u s a % % w s s e w 4 - a 3 < e s u < < e s s w > % % e 0 6 Q z Z ` &.O.=.&.O.O.",
"T.l.#.O.&.@.~ Y J o < 1 < w # 1 w w 1 # 1 w y w n z r w u w 9 , # w < * 0 w < > % q y e b N 6 o e e 2 Z O j ( O...:.l.#._ ",
"4.B.l.<.=.4.O.Q g o % 2 ; & O + + ; r * $ $ O o D Q m + @ @ $ - r = # O # = r 1 % % O . p Q F ; < < > % 0 K ] o.&.v.T.7...",
"[ ;.Z.l.#.] { A o # % Z ! V + O t J W 2 @ @ o O % D R m % o X r Q F ; o = C Q z @ * o O @ p ( F ; o O % K ) o.l.:.&.s.J.Z.",
"4.<.,.#.[ #.~ 8 % K 5 # c ~ B + n U ; % X ; V U % N ~ F Y C ; X 5 Q G ; = Q t % o @ k K p 5 ) G K H g o * v Y o.&.o.O.s.T.",
"Y.#.+.&.O...] P k ) K h A O.R k U ^ 7 o = V R Y E ^ _ ` Y R K B h  .' C B X.v + + j T Y P E ' } R Y Y A g H ..+.&.+.&.<.O.",
"Z.O.O.4.=...#. .R O.{ ~ ` &.@.! ^ ..W 7 B ~ _ ^ %.+.+.+.Y ] O.) ^ %.$.' Q o.( z g Y _ ~ X.&.O.&.! / O.] ~  .&.&.+.&.z.;.o.",
"Z.O.#.4.=.&.=.+.o.s.O.o.&.<.a.O.] O.#.Y R ] o.l.:.&.&.%.[ :.$...#.:.l.$.] ] &.^ L ] [ 7.s.&.%.&.o.$.<...+.o.o.%. .&.&.%.&.",
"  &.&.:.&.] +.&.&.:.&.o.O.s.[ +.&.<.l.] _ o.&.:.&.o...&.&.&.:.+.] s.+.o.&.&.b.O._ ] #.=.:.+.] &.&.&.:.%.] O.&.:.&.z.+.]   ",
"  ] O.:.b.&.&.+.o.&.z.:.=.Z.$...#.J.Z.&.;.$...&.v.;.%.&.[ #.4.4.&.b.;.o.O.b.T.<.&.;.o.+.s.t.#.&.o.O.:.v.&.&.4.v.:.:.<.<.  ",
"    #.<.+.&.3.;.+.s.J.z.&.@.:.$.;.3.@.4.v.&.+.t.$.$.3.s.+.=.Z.Z.:.+.&.&.$.s.$.;.v.4.O.:.&.$.:.s.+.&.v.Y.<.O.O.+.&.O.$.    ",
"      7.] #.;.;.4.Z.7.$.O.o.+.n.<.O.O.G.;.%.s.J.@.+.=.<.<.Z.s.=.O.O.O.<.b.+.o.t.z.+.<.Z.;.O.&.;.3.v.b.;.7.$.o.O.&.]       ",
"          :...O.Y.Z.o._ O.s.] <.$.o.Z.Q.O.O.T.P.Z.s.+.[ l.Y.$._ ] z.O.+.7.] s.~.e. .b.T.P.b.&.] ;.T.7.] a.T.D.D.          "
};
