/* XPM */
static char *f8d44ea0f30e4bd0a6846abd7c577207UuOed7kYauP5GQFU[] = {
/* columns rows colors chars-per-pixel */
"61 61 172 2 ",
"   c None",
".  c #212D1E",
"X  c #0C1123",
"o  c #121526",
"O  c #141B22",
"+  c #191E27",
"@  c #15162A",
"#  c #161B2C",
"$  c #1A1A2E",
"%  c #171D33",
"&  c #1A1E33",
"*  c #201F35",
"=  c #201F38",
"-  c #172023",
";  c #1B2422",
":  c #1E2825",
">  c #1C212B",
",  c #1C2035",
"<  c #1D223A",
"1  c #242726",
"2  c #232B25",
"3  c #2A2D27",
"4  c #21222A",
"5  c #252A29",
"6  c #2A2D2A",
"7  c #263124",
"8  c #283521",
"9  c #2D3826",
"0  c #2F332E",
"q  c #2E3A2A",
"w  c #32362B",
"e  c #353C2B",
"r  c #212236",
"t  c #252930",
"y  c #2B2E31",
"u  c #24253B",
"i  c #28273F",
"p  c #27283E",
"a  c #28293F",
"s  c #2C3032",
"d  c #303735",
"f  c #31411F",
"g  c #344322",
"h  c #3D4C24",
"j  c #39462A",
"k  c #3F4E2C",
"l  c #3F5022",
"z  c #3B4836",
"x  c #424C2D",
"c  c #435423",
"v  c #475A22",
"b  c #4A5D23",
"n  c #45532A",
"m  c #4B5B29",
"M  c #414F30",
"N  c #41473E",
"B  c #42483F",
"V  c #465134",
"C  c #4A5734",
"Z  c #4F5E36",
"A  c #4B553B",
"S  c #4F6326",
"D  c #526726",
"F  c #566C24",
"G  c #596F26",
"H  c #56662D",
"J  c #597025",
"K  c #5C7228",
"L  c #526230",
"P  c #5A6C35",
"I  c #60762A",
"U  c #677D2D",
"Y  c #6A7F2E",
"T  c #677633",
"R  c #6A7C33",
"E  c #707B3A",
"W  c #242641",
"Q  c #282641",
"!  c #262942",
"~  c #2B2B44",
"^  c #2E2D49",
"/  c #312E4B",
"(  c #2F304B",
")  c #32314D",
"_  c #353452",
"`  c #393655",
"'  c #3B3758",
"]  c #3D395B",
"[  c #413C5F",
"{  c #413C60",
"}  c #6D842D",
"|  c #72892F",
" . c #6E8433",
".. c #718533",
"X. c #758B31",
"o. c #79863D",
"O. c #7E8F3B",
"+. c #7D9235",
"@. c #839B36",
"#. c #829339",
"$. c #869C38",
"%. c #899C3B",
"&. c #8CA33B",
"*. c #91A63E",
"=. c #92A83E",
"-. c #8D9C40",
";. c #94A443",
":. c #98A744",
">. c #96AA41",
",. c #9BAD44",
"<. c #9FAB49",
"1. c #9FB146",
"2. c #A0B247",
"3. c #A4B449",
"4. c #A9B74D",
"5. c #ABB94D",
"6. c #AEBB50",
"7. c #B2BD52",
"8. c #B6C155",
"9. c #B7C254",
"0. c #B5C054",
"q. c #B6C154",
"w. c #B8C355",
"e. c #B9C356",
"r. c #BAC357",
"t. c #BBC557",
"y. c #BAC456",
"u. c #BBC656",
"i. c #B8C455",
"p. c #BCC657",
"a. c #BAC456",
"s. c #B5C15C",
"d. c #B8C458",
"f. c #BDC758",
"g. c #BDC658",
"h. c #BEC659",
"j. c #BCC558",
"k. c #BDC658",
"l. c #BEC858",
"z. c #BFC859",
"x. c #BFC85A",
"c. c #BFC859",
"v. c #C0C95A",
"b. c #C1CA5A",
"n. c #C1CA5A",
"m. c #C3CB5B",
"M. c #C3CB5C",
"N. c #C4CB5C",
"B. c #C3CC5C",
"V. c #C4CC5C",
"C. c #C5CD5D",
"Z. c #C6CE5D",
"A. c #C3CB5C",
"S. c #C8CF5E",
"D. c #C8CF5E",
"F. c #C8D05E",
"G. c #C9D05F",
"H. c #CAD15F",
"J. c #C9D05F",
"K. c #C6CE61",
"L. c #C6CE61",
"P. c #C9D060",
"I. c #CAD160",
"U. c #CBD260",
"Y. c #CCD361",
"T. c #CDD361",
"R. c #CCD361",
"E. c #D1D66A",
"W. c #D1D66E",
"Q. c #D1D66C",
"!. c #D3D86D",
"~. c #D1D672",
/* pixels */
"          7.>.3.H.H.>.@.2.b.&.y.5.>.H.!.1.3.Y.U.U.l.2.=.B.Y.4.$.&.v.1.2.p.*.u.!.~.~.U.>.5.y.*.p.1.@.>.H.Y.2.>.8.          ",
"      y.&.6.8.e.v.H.t.5.2.1.4.b.p.2.1.L.8.4.l.U.4.4.8.w.l.U.l.0.4.1.2.e.V.4.,.y.Y.L.1.3.p.B.4.1.2.5.u.H.l.y.8.6.&.y.      ",
"    5.j.4.7.v.7.2.v.H.m.7.4.q.7.w.y.4.l.V.0.4.p.4.5.l.f.3.8.F.F.7.4.7.7.5.v.4.q.C.l.4.y.w.5.q.4.0.b.H.l.2.7.l.8.4.j.5.    ",
"  *.2.r.C.5.7.4.,.7.V.q.q.Z.4.=.4.U.H.6.q.4.>.7.B.8.6.6.>.4.l.l.5.D.e.,.1.C.Y.y.4.5.H.H.4.>.4.H.0.0.b.0.>.4.7.6.C.r.2.*.  ",
"  7.7.e.7.*.4.7.7.q.q.,.2.b.=.3.6.y.v.*.@.,.7.8.8.1.:.7.7.7.8.4.*.v.2.,.7.7.N.3.+.=.v.e.7.3.>.v.1.,.0.8.7.7.4.*.7.e.7.6.  ",
"H.,.4.N.7.7.7.3.,.v.,.,.7.u.b.2.&.,.5.} | &.,.V.j.6.6.6.>.w.4.>.7.7.v.5.&.;.7.#.F } 7.,.&.,.p.y.7.1.,.b.,.3.7.6.8.C.4.1.H.",
"H.,.,.j.7.,.6.:.| ,.&.#.%.7.4.X.@.,...e S X.@.#.6.4.3.6.} ;.,.@.#.5.7.%.X.1.#.m . g ..,.#.X.4.q.-.+.=.,.X.:.6.,.7.j.1.1.H.",
"T.4.3.7.3.,.;.T c #.R c H 1.X.c E -.f O 7 S | } E O.%.$.} } U m h ;.%.D m :.m ; X O e %.E v | 1.H l R +.c T ;.,.2.6.3.4.Y.",
"l.y.t.6.=.4.+.g : R 0 + n X.b ; n Y 3 $ X . S  .2 L +.F } D 8 o 9 ..G 8 3 X.j + $ $ 7 Y n ; b X.n $ 0 R 2 g +.4.*.5.t.t.v.",
"&.w.Y.B.6.>.&.H O > % Z | b ; @ e I  .6 % # O O , P X.v ; O o e X.G 8 o 5 D ..x @ 6 ..I e @ ; b X.Z % ; O H &.=.7.b.Y.8.&.",
"y.H.C.y.8.j.1.} g O $ y w 1 > , 4 7 w t , r $ O P } v : & & , 5 w 3 4 , r 3 w 6 * t w 6 4 , > 6 w 6 % o g } 1.y.8.y.C.H.p.",
"Y.C.4.1.7.4.+.} I O r ^ ^ ^ u ^ / ^ u , p u & > k k 7 # ) u r ~ ^ / u a ) ^ u & = i $ Q ) ) i $ Q ^ u O I } +.4.7.2.4.C.Y.",
"8.j.4.,.7.,.+.X.R 8 , ^ ` ` u ` [ / i $ u u $ r $ $ $ & / r * ^ _ ] ~ ( { _ ~ , * u & ^ _ / i * ~ / < 8 Y X.+.,.7.,.4.y.0.",
"&.w.M.7.7.7.8.-.J F 8 # , ~ u _ / $ $ $ $ $ $ $ $ $ $ $ $ $ $ $ & W u ^ ` & $ $ $ $ $ $ $ $ $ $ $ @ 8 F G %.q.7.7.7.M.8.&.",
"7.8.8.4.*.6.,.$.@.+.G q % < r ^ u $ & & & % % & $ $ & $ & & & % , , r Q ~ $ & % & & & & $ % & + % 0 G +.#.&.,.5.*.4.r.8.7.",
"C.2.4.l.4.7.7.o.q z  .C & < , u u , , < , , , r , , , , , , , , , , r r u r , , < , , & , r , , & C ..z q o.7.7.4.j.4.2.B.",
"H.7.7.m.7.v.<.R j # x N ~ r i r r Q ~ ) ) ) ) Q a u a ) ) ) ~ ~ / r u u * a ~ ^ ) ) ) ~ p u u ( ) B k # j R 1.l.e.p.0.0.H.",
"T.H.w.5.7.w.#.} Y O X i / $ i & r Q ~ _ ` ` ) ~ ) Q ~ { ` ` ( ( _ & u r & Q Q ) ` ` ` ^ ( ^ u ] ] u X O Y } +.i.q.4.q.H.Y.",
"Z.t.2.=.7.*.@.} l O $ $ $ $ $ $ $ $ $ $ $ $ $ & ` ^ ~ ` , $ + $ $ $ $ $ $ $ $ $ $ $ $ $ ^ _ u ] a $ # O c } +.=.5.>.3.j.C.",
"*.5.t.q.*.%.} c ; # % % % $ $ $ $ $ & $ $ $ # % < < p ^ & % & , % $ $ $ $ $ & $ $ $ $ $ < < t ( u % % % - l } &.*.q.j.4.=.",
"r.M.M.6.@.U h ; @ # % % % & % $ & % , # & % % , , , < < & % , % % & % & $ % % $ $ & % % % , , < , % % , X f U &.%.u.V.4.@.",
"W.j.q.y.2.#.c + > x t % , , & & & , , $ & , , , , , , , < & , , & , , & $ , , , & , , , , , < , % , , % 7 S | &.,.4.0.5.3.",
"u.,.4.Y.D.7.#.m j X.w & i r u a p p r u u p p Q u u p p u W < u a r r p p p r u u u a a u u u a u < # O S | @.,.7.>.2.v.Y.",
"&.4.l.C.7.*.1.:...D 5 / / & ~ ` [ _ u ~ ~ ) ] ] ( ~ ) ' ( ` ~ u ` , p _ [ ] a p ~ ( ] ] _ ! ( ' ) < O O R } #.V.q.0.p.H.U.",
"l.C.6.1.6.&.X.m 7 5 $ & r $ & r ) ] r & * & u r , & r r & * * $ r $ $ & Q [ Q , & * u r * & & , , n P > : E 6.d.8.C.4.4.H.",
"4.y.7.,.,.5.%.D 8 o % & $ $ % # u Q r & % $ $ % % $ % # $ % $ % % & & % & ~ u & $ % $ $ % % & % O n  .P L O.4.6.,.8.6.4.l.",
"1.1.6.w.4.l.5.&.K 8 > & , & , , , & r , & & & & , , , , $ & & , , & & , & , r , & & $ & & , < , & 8 v X.+.%.3.6.,.5.j.8.3.",
"l.1.4.F.l.8.4.;...F 6 $ u u < r u p u r r u p u r , u u p u u u r u u r u u u r r u i u u r t u p , : v F $.6.6.7.6.l.w.=.",
"&.3.8.6.=.6.O.h 9 X.w @ u ` * i _ ` ! , u ) ] ] u > ^ ] ] ) ( p & ` i r ( ' ( , r ( ] ] ~ $ u ` ] ` u ;  .} } ;.6.>.2.j.Z.",
"@.0.L.l.4.>.$.v o e r % < u $ & u W < % < , u ! W u a ) W < < < & u & & < ! < , & < u W ! p u ) ^ < , O D } &.y.8.4.8.U.Y.",
"4.b.U.l.8.4.1.U 8 O # , & & , > $ , , , , , > , p u u u , , , , , , , > & & , , , , & & u u < p < , & o 8 U 1.4.0.l.H.l.5.",
"Y.H.8.4.0.j.&.} D O , ~ ^ Q r p ~ ~ u < u u , ~ ~ p r r a r < p ~ ~ u u ~ Q p r r u r Q ~ Q u , p u t e o m @.>.4.l.F.5.&.",
"F.u.3.>.7.=.} Y R 1 p _ ] ' p _ [ ` ^ & i u r ' [ ) u * ` u r ) ] [ Q ^ { ] ^ r r Q & ) [ ` Q & / ~ w X.9 h #.5.*.5.7.4.&.",
"=.w.f.6.7.7.5.%.F v : # u ( u ` ) & $ $ $ $ $ & * & & $ * $ $ & r / u ^ ' r & $ $ & $ & * * & $ * % 6 G ..;.5.q.m.D.4.1.p.",
"3.8.j.4.>.7.3.&.X.X.b 2 , < < ) a $ % & & & % % $ $ $ $ % % % & & < r ~ / $ # % & & & % $ $ % $ # & $ 8 G %.7.b.2.e.7.2.1.",
"l.4.6.8.1.5.4.O.H P } V % , r u r & , , & , & , $ * & & & , & , , , , u p & & , & & & , & * & > & & & @ 8 D $.5.,.,.7.e.4.",
"Y.4.5.b.8.y.5.E 2 $ P A u , u r r u u a Q Q p u u r u a a a a u p r r r r u r a ~ Q Q u u u r p Q i * 6 7 m X.&.7.,.7.C.p.",
"H.F.u.0.8.B.O.} R - O ~ ) & Q r r ^ ( ` ] ] ' ^ ( p ~ [ ] [ ) / ` r i u $ ^ ^ _ [ ] ] ) ^ Q u ] { ~ 1 D X.:.1.*.7.m.j.4.&.",
"H.l.4.>.7.,.@.| S O o & * $ & $ $ * & * u r r * ` ^ ~ ] u r r * * $ & $ $ * * r r r r & ( ` u ] / $ w X.j m #.7.C.T.4.,.p.",
"3.6.0.4.,.&.X.S . # & & $ $ $ $ $ $ $ $ $ $ # % W p a ) , # % % % $ $ $ $ $ $ $ $ $ $ # u ~ u ) = $ t M + ; v #.3.e.q.y.!.",
"@.4.D.p.@.&.U f X , , % % % % # # & % # % $ % % % , u u , % % % % % # $ $ & % & $ $ % % % % < p < % % @ $ X . F +.4.b.E.~.",
"*.4.p.q.&.&.} h - , % , , , % % & & & & & & , , , , , , , % < & , % , , $ & % & $ & % , , , , , & % , 6 $ o e Y =.7.l.F.Q.",
"V.t.2.=.5.*.@.| l O > < r r , r r r r r r < r r < < u < < < r r < r r r < r r r r r r u t , < < r % w ..3 g ..6.b.H.4.2.L.",
"Y.H.w.4.q.y.+.} } O X ! / , ~ _ ] ) u ~ ~ ) ' ` ^ ~ ( _ ( _ ~ u _ r p ) ` ` a u ~ ( ` ' ) ~ ^ ` ) * 6 I Y -.,.,.y.U.u.2.>.",
"T.0.0.p.e.v.<.R j # k B Q $ u ~ ' ' r r u u ^ ^ u u a ^ u ~ r * ~ & * Q ) { Q u u u ~ ^ Q u u ~ i * 4 e n R @.&.7.4.8.u.5.",
"C.2.4.l.4.7.7.o.q z  .C & $ $ $ ! / r & % $ $ # $ # # $ $ # $ $ $ $ $ # < _ u & $ $ $ # # & $ $ $ $ $ o ; c X.1.3.>.5.B.w.",
"7.q.e.4.*.5.1.$.@.+.F 0 % & % & & < r & % % $ , , & , % $ & , , & & & % % % r & % & & & , & % % % % # ; S X.4.u.>.4.8.4.*.",
"&.e.v.7.6.0.0.-.J F 8 # & , r < r r r r r * r , < r r , r < , < < < r r r r r r < r r , < r , u r & 2 S X.,.0.y.l.F.4.1.b.",
"q.y.4.1.7.,.+.X.Y 8 r & u _ * u / _ Q r u ) ` ` = & Q ` ` ^ ~ p r ) i r / _ ^ r r ^ _ ` ~ & % & / Q w | n H -.7.2.q.7.3.1.",
"Y.C.4.2.7.4.+.} I O u , * ~ & * Q ^ u $ r ~ ^ ^ V k d ^ ^ ! ! < $ ~ * $ i ^ i & , W / ^ N C q # ^ ^ y Z + h #.1.,.8.v.5.@.",
"t.F.V.y.8.j.1.} g O > s w 1 $ $ 4 3 w , % # o O P } v ; % % # r w 6 $ $ $ 5 w 4 % & O X k  .G 8 r u & % 0 Y *.,.q.v.Y.u.>.",
"*.q.Y.b.6.*.&.H O > % Z X.v ; @ e I ..6 % # O O , P X.v ; O X e ..K 8 o 6 D X.M $ , O O # z +.F 8 O O > R #.,.b.8.7.l.H.H.",
"j.j.j.6.>.4.+.g : R 0 $ n X.S ; n R 7 $ o 2 S } 2 L X.F  .D 8 o 9 | K 8 3 X.j + # ; l Y j q +.J Y I f O ; c | ,.5.>.4.v.T.",
"Y.4.3.7.2.,.;.T v +.R h H 1.| c R -.g O 7 S | U E O.&.%.} } U m h ;.%.D m :.m ; ; l } } R o.&.%.X.} } H g R :.3.7.4.7.8.2.",
"H.,.1.j.7.,.6.:.| ,.=.+.&.7.3.X.@.<...g S X.@.#.6.4.2.6.} &.1.@.#.5.5.%.X.1.#.c f | @.#.<.0.<.8.+.+.2.&.+.;.5.7.4.7.v.8.>.",
"H.1.4.C.7.6.7.3.,.v.1.<.7.r.u.1.&.,.7.} | &.,.b.r.6.7.6.>.8.4.>.7.7.v.4.*.;.7.#.U &.=.y.l.7.6.7.,.4.t.*.4.,.,.7.;.6.7.7.7.",
"  7.7.8.7.*.4.7.7.7.8.,.1.b.>.4.6.e.M.&.$.>.0.8.8.1.>.7.7.7.8.4.*.v.3.>.6.7.F.1.@.*.4.8.8.4.=.7.7.7.7.7.;.2.q.8.7.m.4.&.  ",
"  *.2.e.C.5.7.3.>.7.N.8.q.F.5.>.4.U.U.7.8.4.>.0.B.8.5.7.>.4.x.l.5.D.e.1.1.F.Y.w.6.q.,.4.l.l.4.7.,.2.r.N.5.5.j.C.e.e.y.y.  ",
"    5.j.4.7.v.7.2.l.T.N.6.4.8.6.8.y.4.j.B.7.3.l.4.5.j.j.2.8.H.H.e.4.7.7.6.l.4.8.C.j.2.w.0.4.8.M.4.5.N.Y.y.4.1.4.7.2.5.    ",
"      y.&.7.8.e.M.H.y.6.2.,.4.B.j.2.1.L.0.6.M.L.4.4.8.y.l.U.l.5.3.,.1.e.b.4.1.j.M.4.y.H.7.2.8.8.j.L.C.8.y.4.,.1.7.*.      ",
"          8.>.2.T.F.>.@.1.M.&.y.4.,.F.!.1.2.Y.U.H.l.3.=.C.Y.4.&.&.v.1.4.y.&.p.!.s.=.C.U.U.C.7.&.q.Y.t.*.p.Y.H.H.          "
};
